<?xml version="1.0" encoding="UTF-8"?>
<svg width="253px" height="156px" viewBox="0 0 253 156" version="1.1" xmlns="http://www.w3.org/2000/svg" xmlns:xlink="http://www.w3.org/1999/xlink">
    <title>空数据</title>
    <g id="空数据" stroke="none" stroke-width="1" fill="none" fill-rule="evenodd">
        <path d="M221.277988,154.968331 C228.148263,140.766499 232,124.831884 232,107.997667 C232,48.3522026 183.646753,0 124,0 C64.353247,0 16,48.3522026 16,107.997667 C16,124.844398 19.8574658,140.790189 26.7373386,155" id="路径" fill="#EBEDF5"></path>
        <path d="M159.855768,42.1851996 C159.065495,42.1851996 158.345536,42.5879769 157.924913,43.2338749 L155.049282,48.1510171 C154.857126,48.5065555 154.76103,48.8827131 154.76103,49.2711851 C154.76103,50.5484314 155.792439,51.5851996 157.066702,51.5851996 C157.862153,51.5851996 158.586148,51.1771194 159.007424,50.5218948 L160.016,48.796 L161.060364,50.5824628 C161.495688,51.2642207 162.221619,51.6715674 163.016258,51.6715674 C164.290495,51.6715674 165.322128,50.6350453 165.322128,49.3582141 C165.322128,48.9252564 165.20278,48.5081418 164.981057,48.1463183 L162.18246,43.3584403 L162.080452,43.2111065 C161.725177,42.7355484 161.220297,42.4173705 160.652556,42.3115493 L160.562,42.298 L160.645658,42.3248186 C160.394371,42.2328236 160.127809,42.1851996 159.855768,42.1851996 Z M159.855768,43.5851996 C159.962983,43.5851996 160.066678,43.6037258 160.164364,43.6394881 L160.329587,43.6780781 C160.599646,43.707347 160.841326,43.8596707 160.989042,44.0898111 L163.779883,48.8653246 C163.875126,49.0210374 163.922128,49.1853081 163.922128,49.3582141 C163.922128,49.8633246 163.515811,50.2715674 163.016258,50.2715674 C162.704782,50.2715674 162.420759,50.1121915 162.254391,49.8520391 L160.015238,46.0208989 L157.874694,49.6873164 C157.702735,50.0015531 157.400784,50.1851996 157.066702,50.1851996 C156.567266,50.1851996 156.16103,49.7768522 156.16103,49.2711851 C156.16103,49.116067 156.198844,48.9680479 156.270169,48.8357762 L159.051661,44.0758881 C159.22364,43.7664171 159.52386,43.5851996 159.855768,43.5851996 Z" id="形状结合" fill="#282C33" fill-rule="nonzero" transform="translate(160.041579, 46.928384) rotate(50.000000) translate(-160.041579, -46.928384) "></path>
        <path d="M67.5676391,76.3747258 C64.9719008,76.3747258 62.8676391,78.4789875 62.8676391,81.0747258 C62.8676391,83.6704641 64.9719008,85.7747258 67.5676391,85.7747258 C70.1633775,85.7747258 72.2676391,83.6704641 72.2676391,81.0747258 C72.2676391,78.4789875 70.1633775,76.3747258 67.5676391,76.3747258 Z M67.5676391,77.7747258 C69.3901788,77.7747258 70.8676391,79.2521861 70.8676391,81.0747258 C70.8676391,82.8972655 69.3901788,84.3747258 67.5676391,84.3747258 C65.7450995,84.3747258 64.2676391,82.8972655 64.2676391,81.0747258 C64.2676391,79.2521861 65.7450995,77.7747258 67.5676391,77.7747258 Z" id="椭圆形" fill="#282C33" fill-rule="nonzero"></path>
        <g id="编组-13" transform="translate(75.000000, 63.820571)">
            <path d="M16.6061656,40.9 L95.6740756,40.9 C97.8132586,40.9 99.6424772,42.4385506 100.009007,44.5460988 L108.174903,91.5 L108.174903,91.5 L20.1749032,91.5 L12.2712338,46.0539012 C11.8548657,43.6597845 13.4581477,41.3814364 15.8522644,40.9650683 C16.10123,40.9217699 16.3534629,40.9 16.6061656,40.9 Z" id="矩形" fill="#0052CC" transform="translate(59.774903, 66.200000) scale(-1, 1) translate(-59.774903, -66.200000) "></path>
            <path d="M45,1 L88,1 C91.3137085,1 94,3.6862915 94,7 L94,64 L94,64 L39,64 L39,7 C39,3.6862915 41.6862915,1 45,1 Z" id="矩形" fill="#FFFFFF"></path>
            <path d="M90,0.3 L43,0.3 C40.4042617,0.3 38.3,2.40426168 38.3,5 L38.3,84.7 L94.7,84.7 L94.7,5 C94.7,2.40426168 92.5957383,0.3 90,0.3 Z M90,1.7 L90.1872612,1.70522394 C91.9226767,1.80230414 93.3,3.24030652 93.3,5 L93.3,83.3 L39.7,83.3 L39.7,5 C39.7,3.17746033 41.1774603,1.7 43,1.7 L90,1.7 Z" id="矩形" fill="#282C33" fill-rule="nonzero"></path>
            <line x1="58" y1="17" x2="84" y2="17" id="直线-8" stroke="#282C33" stroke-width="1.4" stroke-linecap="square"></line>
            <line x1="52" y1="27" x2="78" y2="27" id="直线-8" stroke="#282C33" stroke-width="1.4" stroke-linecap="square"></line>
            <rect id="矩形" fill="#FFFFFF" x="15" y="10" width="56" height="43" rx="6"></rect>
            <path d="M67,9.3 L20,9.3 C17.4042617,9.3 15.3,11.4042617 15.3,14 L15.3,75.7 L71.7,75.7 L71.7,14 C71.7,11.4042617 69.5957383,9.3 67,9.3 Z M67,10.7 L67.1872612,10.7052239 C68.9226767,10.8023041 70.3,12.2403065 70.3,14 L70.3,74.3 L16.7,74.3 L16.7,14 C16.7,12.1774603 18.1774603,10.7 20,10.7 L67,10.7 Z" id="矩形" fill="#282C33" fill-rule="nonzero"></path>
            <circle id="椭圆形" fill="#12D3EF" cx="31" cy="24" r="5"></circle>
            <path d="M29,17.3 C25.8519769,17.3 23.3,19.8519769 23.3,23 C23.3,26.1480231 25.8519769,28.7 29,28.7 C32.1480231,28.7 34.7,26.1480231 34.7,23 C34.7,19.8519769 32.1480231,17.3 29,17.3 Z M29,18.7 C31.3748244,18.7 33.3,20.6251756 33.3,23 C33.3,25.3748244 31.3748244,27.3 29,27.3 C26.6251756,27.3 24.7,25.3748244 24.7,23 C24.7,20.6251756 26.6251756,18.7 29,18.7 Z" id="椭圆形" fill="#282C33" fill-rule="nonzero"></path>
            <line x1="40" y1="23" x2="62" y2="23" id="直线-8" stroke="#282C33" stroke-width="1.4" stroke-linecap="square"></line>
            <path d="M39.3825562,31 C41.0869918,31 42.6381063,31.9843749 43.3638087,33.5265996 L46.794,40.818 L85.7793554,40.8181818 C87.9162018,40.8181818 89.7441324,42.3534556 90.1132226,44.4581848 L98.2749032,91 L10.2749032,91 L2.622,47.363 L2.57490319,47.3636364 L2.417,46.194 L2.37977223,45.9781788 C2.35100628,45.8141416 2.3317271,45.6506348 2.32153993,45.488221 L1.04528093,35.9862807 C0.721487048,33.5778964 2.41138142,31.3630285 4.81976566,31.0392346 C5.01410001,31.0131074 5.20996353,31 5.40604634,31 L39.3825562,31 Z" id="形状结合" fill="#247BFF"></path>
            <path d="M39.3825562,30.3 L5.40604634,30.3 C5.17876853,30.3 4.95174491,30.3151927 4.72649373,30.3454765 C1.93495746,30.720783 -0.0237837484,33.2880163 0.351522795,36.0795526 L1.62777,45.5814052 C1.63303132,45.6863413 1.64697219,45.8190156 1.66756219,45.9583346 L1.72718714,46.3129883 L1.96417709,48.0719523 L2.035,48.07 L9.68698333,91.7 L99.1083385,91.7 L90.8027014,44.3372762 L90.7591886,44.1173464 C90.2461552,41.791488 88.1811001,40.1181818 85.7793554,40.1181818 L47.238,40.118 L43.9972171,33.2286167 C43.1560347,31.44098 41.358152,30.3 39.3825562,30.3 Z M5.40604634,31.7 L39.3825562,31.7 C40.8158316,31.7 42.1201779,32.5277698 42.7304276,33.8246405 L46.3497169,41.5179979 L85.7793521,41.5181818 L85.9708387,41.523085 C87.6844787,41.6110087 89.1244571,42.8724178 89.4237437,44.5790934 L97.441,90.3 L10.862,90.3 L3.20851881,46.6550112 L3.185,46.655 L3.11070696,46.1003482 L3.06958509,45.8591905 C3.04513861,45.7197693 3.02879858,45.5820138 3.020167,45.4444006 L1.73905086,35.8930965 C1.46675784,33.8677766 2.88780539,32.0052739 4.91303758,31.7329927 C5.0764551,31.7110221 5.24115852,31.7 5.40604634,31.7 Z" id="形状结合" fill="#282C33" fill-rule="nonzero"></path>
            <g id="编组-14" transform="translate(74.000000, 52.000000)">
                <path d="M11,1 L39,1 C40.1045695,1 41,1.8954305 41,3 L41,33 C41,36.3137085 38.3137085,39 35,39 L9,39 L9,39 L9,3 C9,1.8954305 9.8954305,1 11,1 Z" id="矩形" fill="#B8D4FF"></path>
                <path d="M39,0.3 L11,0.3 C9.50883118,0.3 8.3,1.50883118 8.3,3 L8.3,39.7 L35,39.7 C38.7003078,39.7 41.7,36.7003078 41.7,33 L41.7,3 C41.7,1.50883118 40.4911688,0.3 39,0.3 Z M11,1.7 L39,1.7 C39.7179702,1.7 40.3,2.28202983 40.3,3 L40.3,33 L40.2955792,33.2184656 C40.1810091,36.0442707 37.8539314,38.3 35,38.3 L9.7,38.3 L9.7,3 C9.7,2.28202983 10.2820298,1.7 11,1.7 Z" id="矩形" fill="#282C33" fill-rule="nonzero"></path>
                <polygon id="直线-8" fill="#282C33" fill-rule="nonzero" points="33.7 10.3 33.7 11.7 16.3 11.7 16.3 10.3"></polygon>
                <polygon id="直线-8" fill="#282C33" fill-rule="nonzero" points="25.7 21.3 25.7 22.7 16.3 22.7 16.3 21.3"></polygon>
                <path d="M29,39 L9.61538462,39 C4.85723908,39 1,35.418278 1,31 L1,31 L1,31 L29,31" id="路径" fill="#B8D4FF"></path>
                <path d="M29,30.3 L29,31.7 L1.736,31.7 C2.1105883,35.3172519 5.35132658,38.1785829 9.35858161,38.2962356 L9.61538462,38.3 L29,38.3 L29,39.7 L9.61538462,39.7 C4.5734258,39.7 0.449651883,35.9543853 0.303982011,31.2571403 L0.3,31 L0.3,30.3 L29,30.3 Z" id="路径" fill="#282C33" fill-rule="nonzero"></path>
                <path d="M34.7,39 C31.3862915,39 28.7,36.3137085 28.7,33 L28.7,31 L28.7,31" id="路径" stroke="#282C33" stroke-width="1.4"></path>
            </g>
            <ellipse id="椭圆形" fill-opacity="0.3" fill="#FFFFFF" transform="translate(26.500000, 66.000000) rotate(-10.000000) translate(-26.500000, -66.000000) " cx="26.5" cy="66" rx="2.5" ry="3"></ellipse>
            <rect id="矩形" fill-opacity="0.3" fill="#FFFFFF" x="33" y="64" width="42" height="4" rx="2"></rect>
        </g>
        <g id="编组-3" transform="translate(0.000000, 153.820571)" fill="#282C33" fill-rule="nonzero">
            <polygon id="直线" points="253.15 0.45 253.15 1.85 -0.25 1.85 -0.25 0.45"></polygon>
        </g>
        <path d="M50.8280549,136.25948 C44.9683295,126.053338 41.4524943,120.585762 40.2805492,119.856751 C38.5226316,118.763236 45.5543021,142.820571 46.7262472,142.820571 C47.5075439,142.820571 49.2654615,142.820571 52,142.820571 L50.8280549,136.25948 Z" id="路径-61" fill="#0066FF"></path>
        <path d="M63.8280549,137.25948 C57.9683295,127.053338 54.4524943,121.585762 53.2805492,120.856751 C51.5226316,119.763236 58.5543021,143.820571 59.7262472,143.820571 C60.5075439,143.820571 62.2654615,143.820571 65,143.820571 L63.8280549,137.25948 Z" id="路径-61" fill="#0052CC" transform="translate(59.000000, 132.320571) scale(-1, 1) translate(-59.000000, -132.320571) "></path>
        <path d="M55,108.231787 C53.8392881,91.6895425 52.6785762,82.9014753 51.5178643,81.867585 C49.7767965,80.3167496 43.3928811,117.536799 49.7767965,133.820571 L55,133.045153 L55,108.231787 Z" id="路径-60" fill="#4791FF"></path>
        <polygon id="路径-2" fill="#FFFFFF" fill-rule="nonzero" points="51.3 100.820571 51.3 130.820571 50.7 130.820571 50.7 100.820571"></polygon>
        <polygon id="直线-2" fill="#FFFFFF" fill-rule="nonzero" points="53.416795 107.904546 53.9160251 108.237366 51.583205 111.736596 51.0839749 111.403776"></polygon>
        <polygon id="直线-2" fill="#FFFFFF" fill-rule="nonzero" transform="translate(49.500000, 116.820571) scale(-1, 1) translate(-49.500000, -116.820571) " points="50.416795 114.904546 50.9160251 115.237366 48.583205 118.736596 48.0839749 118.403776"></polygon>
        <path d="M60.8811108,119.531845 C59.7203989,104.262081 58.559687,96.1500194 57.3989751,95.1956591 C55.6579073,93.7641188 49.2739919,128.121088 55.6579073,143.152261 L60.8811108,142.436491 L60.8811108,119.531845 Z" id="路径-60" fill="#12D3EF" transform="translate(56.881111, 119.152261) scale(-1, 1) rotate(-20.000000) translate(-56.881111, -119.152261) "></path>
        <polygon id="矩形" fill="#4791FF" points="38 132.320571 66 132.320571 61.9219142 154.720571 42.0780858 154.720571"></polygon>
        <polygon id="路径-10" fill="#B8D4FF" points="38 132.320571 45.7 132.320571 49.9 154.720571 42.2 154.720571"></polygon>
    </g>
</svg>