<svg width="220" height="160" viewBox="0 0 220 160" fill="none" xmlns="http://www.w3.org/2000/svg">
<rect x="63" y="34.0001" width="94" height="110" rx="12" fill="url(#paint0_linear_2539_132192)"/>
<mask id="mask0_2539_132192" style="mask-type:alpha" maskUnits="userSpaceOnUse" x="63" y="34" width="94" height="111">
<rect x="63" y="34.0002" width="94" height="110" rx="12" fill="url(#paint1_linear_2539_132192)"/>
</mask>
<g mask="url(#mask0_2539_132192)">
<rect x="72.4583" y="41.4586" width="75.0833" height="94.0833" fill="url(#paint2_linear_2539_132192)" stroke="white" stroke-width="0.916667"/>
<rect x="35" y="44" width="70" height="17" rx="6" fill="url(#paint3_linear_2539_132192)"/>
<path opacity="0.8" d="M144.501 103.213C147.936 97.6191 156.064 97.6191 159.499 103.213L178.769 134.595C182.369 140.459 178.15 148 171.27 148H132.73C125.85 148 121.631 140.459 125.231 134.595L144.501 103.213Z" fill="url(#paint4_linear_2539_132192)"/>
</g>
<path d="M148.866 111.492C151.2 107.631 156.8 107.631 159.134 111.492L174.495 136.896C176.913 140.894 174.033 146 169.361 146H138.639C133.967 146 131.087 140.894 133.505 136.896L148.866 111.492Z" fill="#0066FF"/>
<path fill-rule="evenodd" clip-rule="evenodd" d="M152.401 118C151.77 118 151.268 118.53 151.302 119.161L151.791 128.049L152.721 132.745C152.823 133.26 153.275 133.632 153.8 133.632H154.202C154.727 133.632 155.179 133.26 155.281 132.745L156.211 128.049L156.699 119.161C156.734 118.53 156.232 118 155.601 118H152.401ZM152.798 135.103C152.191 135.103 151.698 135.595 151.698 136.203V138.6C151.698 139.208 152.191 139.7 152.798 139.7H155.202C155.81 139.7 156.302 139.208 156.302 138.6V136.203C156.302 135.595 155.81 135.103 155.202 135.103H152.798Z" fill="url(#paint5_linear_2539_132192)"/>
<path d="M115.724 34.9501H104.276C105.953 34.0603 107.32 32.6144 108.1 30.7958C108.816 29.1249 111.184 29.1249 111.9 30.7958C112.68 32.6144 114.047 34.0603 115.724 34.9501Z" stroke="url(#paint6_linear_2539_132192)" stroke-width="12.1"/>
<mask id="mask1_2539_132192" style="mask-type:alpha" maskUnits="userSpaceOnUse" x="91" y="23" width="38" height="19">
<path d="M115.724 34.9501H104.276C105.953 34.0603 107.32 32.6144 108.1 30.7958C108.816 29.1249 111.184 29.1249 111.9 30.7958C112.68 32.6144 114.047 34.0603 115.724 34.9501Z" stroke="url(#paint7_linear_2539_132192)" stroke-width="12.1"/>
</mask>
<g mask="url(#mask1_2539_132192)">
<rect opacity="0.4" x="75.5625" y="32.4816" width="62.6875" height="12.8889" fill="url(#paint8_linear_2539_132192)"/>
</g>
<circle cx="110.001" cy="28.2001" r="2.2" fill="#757B94"/>
<rect x="32.6" y="40.6001" width="66.8" height="14.8" rx="5.4" fill="#EBEDF5" fill-opacity="0.6" stroke="#282C33" stroke-width="1.2"/>
<path fill-rule="evenodd" clip-rule="evenodd" d="M88.3 50.3001C89.5703 50.3001 90.6 49.2703 90.6 48.0001C90.6 46.7298 89.5703 45.7001 88.3 45.7001C87.0297 45.7001 86 46.7298 86 48.0001C86 49.2703 87.0297 50.3001 88.3 50.3001ZM46.6 48.0001C46.6 49.2704 45.5703 50.3001 44.3 50.3001C43.0297 50.3001 42 49.2704 42 48.0001C42 46.7299 43.0297 45.7001 44.3 45.7001C45.5703 45.7001 46.6 46.7299 46.6 48.0001ZM57.6 48.0001C57.6 49.2704 56.5703 50.3001 55.3 50.3001C54.0297 50.3001 53 49.2704 53 48.0001C53 46.7299 54.0297 45.7001 55.3 45.7001C56.5703 45.7001 57.6 46.7299 57.6 48.0001ZM66.3 50.3001C67.5703 50.3001 68.6 49.2704 68.6 48.0001C68.6 46.7299 67.5703 45.7001 66.3 45.7001C65.0297 45.7001 64 46.7299 64 48.0001C64 49.2704 65.0297 50.3001 66.3 50.3001ZM79.6 48.0001C79.6 49.2704 78.5703 50.3001 77.3 50.3001C76.0297 50.3001 75 49.2704 75 48.0001C75 46.7299 76.0297 45.7001 77.3 45.7001C78.5703 45.7001 79.6 46.7299 79.6 48.0001Z" fill="#0066FF"/>
<path d="M119.524 60.3498L121.81 62.3743L121.146 63.1229L124.194 65.8222L124.857 65.0736L127.143 67.0981L126.48 67.8467L129.527 70.546L130.19 69.7974L132.476 71.8219L131.813 72.5705L133 73.6217V75.5443H134V79.1035H133V83.8491H134V87.4083H133V92.1539H134V95.713H133V100.459H134V104.018H133V108.763H134V112.323H133V117.068H134V120.627H133V122H131.714V123H128.286V122H123.714V123H120.286V122H115.714V123H112.286V122H107.714V123H104.286V122H99.7143V123H96.2857V122H91.7143V123H88.2857V122H87V120.714H86V117.286H87V112.714H86V109.286H87V104.714H86V101.286H87V96.7144H86V93.2858H87V88.7144H86V85.2858H87V80.7144H86V77.2858H87V72.7144H86V69.2858H87V64.7144H86V61.2858H87V60.0001H88.2857V59.0001H91.7143V60.0001H96.2857V59.0001H99.7143V60.0001H104.286V59.0001H107.714V60.0001H112.286V59.0001H115.714V60.0001H117.621L118.861 61.0984L119.524 60.3498Z" fill="#BFD9FF" stroke="#0066FF" stroke-width="2" stroke-dasharray="4.4 3.3"/>
<path d="M166.71 47.8803C166.15 46.8868 165.343 44.7609 166.593 44.2053C168.157 43.511 170.314 49.0741 171.878 48.3797C173.441 47.6853 170.921 43.2147 172.485 42.5203C173.736 41.9648 176.529 45.0718 177.769 46.6947" stroke="#D3D9E6" stroke-width="1.8"/>
<path d="M161.75 35.8698C159.737 32.628 156.671 27.4678 158.929 26.3392C161.186 25.2106 166.282 34.1282 168.522 31.9195C170.762 29.7109 161.186 24.0191 163.443 21.7619C165.7 19.5046 170.845 27.8252 172.697 26.3392C174.55 24.8531 168.086 16.7921 168.086 16.7921" stroke="#D3D9E6" stroke-width="1.8"/>
<path d="M145.224 29.5673C146.345 29.6509 148.611 29.4819 148.711 28.1374C148.837 26.4566 142.891 26.8581 143.017 25.1774C143.142 23.4967 148.184 23.873 148.309 22.1923C148.41 20.8477 143.103 21.4448 142.615 19.2323C142.127 17.0199 148.75 16.1292 148.75 16.1292" stroke="#D3D9E6" stroke-width="1.8"/>
<defs>
<linearGradient id="paint0_linear_2539_132192" x1="63" y1="34.0001" x2="157" y2="34.0001" gradientUnits="userSpaceOnUse">
<stop stop-color="#CFD4E6"/>
<stop offset="1" stop-color="#DBE0F0"/>
</linearGradient>
<linearGradient id="paint1_linear_2539_132192" x1="63" y1="34.0002" x2="157" y2="34.0002" gradientUnits="userSpaceOnUse">
<stop stop-color="#C0C5D8"/>
<stop offset="1" stop-color="#EBF0FB"/>
</linearGradient>
<linearGradient id="paint2_linear_2539_132192" x1="72" y1="41.0002" x2="148" y2="41.0002" gradientUnits="userSpaceOnUse">
<stop stop-color="#CFD4E4"/>
<stop offset="1" stop-color="#DBE1F2"/>
</linearGradient>
<linearGradient id="paint3_linear_2539_132192" x1="64" y1="50" x2="104.34" y2="59.6923" gradientUnits="userSpaceOnUse">
<stop stop-color="#BBC0D5"/>
<stop offset="1" stop-color="#CDD3E4"/>
</linearGradient>
<linearGradient id="paint4_linear_2539_132192" x1="123.319" y1="140.271" x2="149.005" y2="135.33" gradientUnits="userSpaceOnUse">
<stop stop-color="#B6BDD2"/>
<stop offset="1" stop-color="#D7DDEC"/>
</linearGradient>
<linearGradient id="paint5_linear_2539_132192" x1="152.946" y1="121.498" x2="162.038" y2="124.815" gradientUnits="userSpaceOnUse">
<stop offset="0.0198017" stop-color="white"/>
<stop offset="1" stop-color="white" stop-opacity="0.55"/>
</linearGradient>
<linearGradient id="paint6_linear_2539_132192" x1="91.5" y1="30.2501" x2="128.5" y2="30.2501" gradientUnits="userSpaceOnUse">
<stop stop-color="#CBD1E7"/>
<stop offset="1" stop-color="#DDE3F1"/>
</linearGradient>
<linearGradient id="paint7_linear_2539_132192" x1="91.5" y1="30.2501" x2="128.5" y2="30.2501" gradientUnits="userSpaceOnUse">
<stop stop-color="#BEC2D0"/>
<stop offset="1" stop-color="#DBE0F1"/>
</linearGradient>
<linearGradient id="paint8_linear_2539_132192" x1="106.906" y1="32.4816" x2="106.906" y2="45.3705" gradientUnits="userSpaceOnUse">
<stop stop-color="#868FAE" stop-opacity="0"/>
<stop offset="1" stop-color="#61677C"/>
</linearGradient>
</defs>
</svg>
