<?xml version="1.0" encoding="UTF-8"?>
<svg width="80px" height="79px" viewBox="0 0 80 79" version="1.1" xmlns="http://www.w3.org/2000/svg" xmlns:xlink="http://www.w3.org/1999/xlink">
    <title>无权限</title>
    <g id="页面-1" stroke="none" stroke-width="1" fill="none" fill-rule="evenodd">
        <g id="无权限" transform="translate(-680.000000, -410.000000)">
            <g id="编组-2" transform="translate(600.000000, 400.000000)">
                <g id="无权限" transform="translate(70.000000, 0.000000)">
                    <rect id="矩形" x="0" y="0" width="100" height="100"></rect>
                    <g id="编组-27" transform="translate(12.000000, 12.000000)">
                        <path d="M43.7957774,75 L7.38461538,75 C3.30620492,75 0,71.7764502 0,67.8 L0,34.2 C0,30.2235498 3.30620492,27 7.38461538,27 L56.6153846,27 C60.6937951,27 64,30.2235498 64,34.2 L64,38.8838768" id="无权限" stroke="#A8B0BF" stroke-width="2.8" stroke-linecap="round"></path>
                        <rect id="矩形" stroke="#A8B0BF" stroke-width="2.8" x="56" y="46" width="16" height="16" rx="8"></rect>
                        <path d="M52,74 C52,67.372583 57.372583,62 64,62 C70.627417,62 76,67.372583 76,74" id="路径" stroke="#A8B0BF" stroke-width="2.8" stroke-linecap="round"></path>
                        <path d="M32,0 C41.9411255,-1.82615513e-15 50,8.0588745 50,18 L50,27 L50,27 L14,27 L14,18 C14,8.0588745 22.0588745,1.82615513e-15 32,0 Z" id="矩形" stroke="#A8B0BF" stroke-width="2.8"></path>
                        <path d="M21,27 L21,18 C21,11.9248678 25.9248678,7 32,7 C38.0751322,7 43,11.9248678 43,18 L43,19.4781991 L43,19.4781991" id="路径" stroke="#A8B0BF" stroke-width="2.8" stroke-linecap="round" stroke-linejoin="round"></path>
                        <circle id="椭圆形" fill="#E2E6F0" cx="32" cy="46" r="6"></circle>
                        <path d="M29,46 L35,46 L35,59 C35,60.6568542 33.6568542,62 32,62 C30.3431458,62 29,60.6568542 29,59 L29,46 L29,46 Z" id="矩形" fill="#E2E6F0"></path>
                    </g>
                </g>
            </g>
        </g>
    </g>
</svg>