<?xml version="1.0" encoding="UTF-8"?>
<svg width="252px" height="156px" viewBox="0 0 252 156" version="1.1" xmlns="http://www.w3.org/2000/svg" xmlns:xlink="http://www.w3.org/1999/xlink">
    <title>illustration</title>
    <g id="illustration" stroke="none" stroke-width="1" fill="none" fill-rule="evenodd">
        <g id="---没有权限---" transform="translate(-6.000000, -56.000000)">
            <g id="编组-3">
                <g id="Triangle-2">
                    <path d="M132.016426,76.1969372 L180.666472,157.6113 C188.598801,170.88581 184.268108,188.077349 170.993598,196.009678 C166.651935,198.604087 161.688611,199.974052 156.630845,199.974052 L59.3307537,199.974052 C43.8667807,199.974052 31.3307537,187.438025 31.3307537,171.974052 C31.3307537,166.916286 32.7007188,161.952962 35.2951271,157.6113 L83.9451729,76.1969372 C91.8775021,62.9224272 109.069042,58.5917339 122.343552,66.5240631 C126.317987,68.8990303 129.641459,72.2225022 132.016426,76.1969372 Z" id="Triangle" fill="#EBEDF5" transform="translate(107.980799, 117.974052) rotate(287.000000) translate(-107.980799, -117.974052) "></path>
                    <path d="M93.8557676,102.364629 C93.0654951,102.364629 92.3455359,102.767406 91.9249126,103.413304 L89.0492823,108.330446 C88.8571264,108.685985 88.7610297,109.062142 88.7610297,109.450614 C88.7610297,110.727861 89.792439,111.764629 91.0667016,111.764629 C91.8621529,111.764629 92.5861475,111.356549 93.0074241,110.701324 L94.016,108.976 L95.0603637,110.761892 C95.4956879,111.44365 96.2216189,111.850997 97.0162584,111.850997 C98.2904952,111.850997 99.3221277,110.814474 99.3221277,109.537643 C99.3221277,109.104685 99.2027802,108.687571 98.9810566,108.325747 L96.18246,103.537869 L96.0804523,103.390536 C95.7251771,102.914978 95.2202968,102.5968 94.6525561,102.490978 L94.559,102.476 L94.6456579,102.504248 C94.3943706,102.412253 94.1278086,102.364629 93.8557676,102.364629 Z M93.8557676,103.764629 C93.9629825,103.764629 94.0666779,103.783155 94.1643637,103.818917 L94.3295868,103.857507 C94.5996461,103.886776 94.8413258,104.0391 94.9890417,104.26924 L97.7798829,109.044754 C97.8751255,109.200466 97.9221277,109.364737 97.9221277,109.537643 C97.9221277,110.042754 97.5158107,110.450997 97.0162584,110.450997 C96.7047821,110.450997 96.4207589,110.291621 96.2543907,110.031468 L94.0152379,106.200328 L91.8746935,109.866745 C91.702735,110.180982 91.4007838,110.364629 91.0667016,110.364629 C90.5672664,110.364629 90.1610297,109.956281 90.1610297,109.450614 C90.1610297,109.295496 90.198844,109.147477 90.2701689,109.015205 L93.0516606,104.255317 C93.2236402,103.945846 93.5238602,103.764629 93.8557676,103.764629 Z" id="形状结合" fill="#282C33" fill-rule="nonzero" transform="translate(94.041579, 107.107813) rotate(-113.000000) translate(-94.041579, -107.107813) "></path>
                    <path d="M170.567639,119.554155 C167.971901,119.554155 165.867639,121.658417 165.867639,124.254155 C165.867639,126.849893 167.971901,128.954155 170.567639,128.954155 C173.163377,128.954155 175.267639,126.849893 175.267639,124.254155 C175.267639,121.658417 173.163377,119.554155 170.567639,119.554155 Z M170.567639,120.954155 C172.390179,120.954155 173.867639,122.431615 173.867639,124.254155 C173.867639,126.076695 172.390179,127.554155 170.567639,127.554155 C168.745099,127.554155 167.267639,126.076695 167.267639,124.254155 C167.267639,122.431615 168.745099,120.954155 170.567639,120.954155 Z" id="椭圆形" fill="#282C33" fill-rule="nonzero"></path>
                    <path d="M133,105.3 C146.505019,105.3 157.47857,116.138501 157.696691,129.59154 L157.7,130 L157.7,154.7 L108.3,154.7 L108.3,130 C108.3,116.358567 119.358567,105.3 133,105.3 Z M133,106.7 C120.260448,106.7 109.908879,116.924173 109.703122,129.614692 L109.7,130 L109.7,153.3 L156.3,153.3 L156.3,130 C156.3,117.387843 146.279288,107.116149 133.765276,106.71233 L133.385308,106.703122 L133,106.7 Z M133,113.3 C142.115909,113.3 149.525884,120.603975 149.696976,129.678979 L149.7,130 L149.7,146.7 L116.3,146.7 L116.3,129.99325 L116.303167,129.67162 C116.478516,120.587156 123.899269,113.3 133,113.3 Z M133,114.7 C124.769183,114.7 118.038123,121.206256 117.712441,129.37287 L117.703004,129.691879 L117.7,130 L117.7,145.3 L148.3,145.3 L148.3,130 C148.3,121.655668 141.620137,114.871501 133.316113,114.703201 L133,114.7 Z" id="形状结合" fill="#282C33" fill-rule="nonzero"></path>
                    <rect id="矩形" fill="#247BFF" x="85" y="145" width="96" height="66" rx="6"></rect>
                    <path d="M175,144.3 L91,144.3 C87.2996922,144.3 84.3,147.299692 84.3,151 L84.3,205 C84.3,208.700308 87.2996922,211.7 91,211.7 L175,211.7 C178.700308,211.7 181.7,208.700308 181.7,205 L181.7,151 C181.7,147.299692 178.700308,144.3 175,144.3 Z M91,145.7 L175,145.7 C177.927109,145.7 180.3,148.072891 180.3,151 L180.3,205 C180.3,207.927109 177.927109,210.3 175,210.3 L91,210.3 C88.0728908,210.3 85.7,207.927109 85.7,205 L85.7,151 C85.7,148.072891 88.0728908,145.7 91,145.7 Z" id="矩形" fill="#282C33" fill-rule="nonzero"></path>
                    <g id="编组-5" transform="translate(123.000000, 159.000000)">
                        <g id="编组-12">
                            <path d="M12,3 C16.9705627,3 21,7.02943725 21,12 C21,15.9184405 18.4958532,19.2520062 15.000578,20.4876786 L15,27 C15,28.6568542 13.6568542,30 12,30 C10.3431458,30 9,28.6568542 9,27 L9.00041586,20.4880298 C5.50462151,19.252638 3,15.9188119 3,12 C3,7.02943725 7.02943725,3 12,3 Z" id="形状结合" fill="#12D3EF"></path>
                            <path d="M10,0.3 C4.64283793,0.3 0.3,4.64283793 0.3,10 L0.304237539,10.2882859 C0.417003695,14.1207112 2.77100007,17.4856494 6.23879448,18.9437892 L6.3,18.968 L6.3,24.9999553 C6.3,27.0434536 7.95654643,28.7 10,28.7 L10.1965031,28.6948713 C12.1486038,28.5927234 13.7,26.9775357 13.7,25 L13.7,18.968 L13.7622005,18.9433702 C17.3161676,17.4485282 19.7,13.9508795 19.7,10 C19.7,4.64283793 15.3571621,0.3 10,0.3 Z M10,1.7 C14.5839634,1.7 18.3,5.41603658 18.3,10 C18.3,13.5456992 16.0561426,16.6649996 12.7672604,17.8277067 L12.3006219,17.9926757 L12.3,24.9999379 C12.3,26.2702549 11.2702549,27.3 10,27.3 C8.72974508,27.3 7.7,26.2702549 7.7,25 L7.70044747,17.9929918 L7.23365552,17.8280304 C3.9443027,16.6655938 1.7,13.5460515 1.7,10 C1.7,5.41603658 5.41603658,1.7 10,1.7 Z" id="形状结合" fill="#282C33" fill-rule="nonzero"></path>
                            <rect id="矩形" fill="#FFFFFF" x="6" y="9" width="8" height="1.4" rx="0.7"></rect>
                        </g>
                        <rect id="矩形" fill-opacity="0.3" fill="#FFFFFF" x="3" y="41" width="16" height="4" rx="2"></rect>
                    </g>
                </g>
                <polygon id="直线" fill="#282C33" fill-rule="nonzero" points="259.15 210.45 259.15 211.85 5.75 211.85 5.75 210.45"></polygon>
            </g>
            <g id="flower" transform="translate(29.000000, 150.000000)">
                <polygon id="矩形" fill="#4791FF" points="21 38.5 49 38.5 44.9219142 60.9 25.0780858 60.9"></polygon>
                <g id="编组-7" transform="translate(15.587095, 17.227675) rotate(50.000000) translate(-15.587095, -17.227675) translate(1.087095, 9.227675)">
                    <rect id="矩形" fill="#0066FF" x="0.233955557" y="0.80721239" width="28" height="14" rx="7"></rect>
                    <polygon id="直线-3" fill="#F6F7FA" fill-rule="nonzero" points="12.8339556 10.253659 13.1875089 10.6072124 8.63395556 15.1607658 8.28040217 14.8072124"></polygon>
                    <polygon id="直线-3" fill="#F6F7FA" fill-rule="nonzero" transform="translate(17.230722, 3.523999) scale(-1, 1) translate(-17.230722, -3.523999) " points="19.3307216 1.07044568 19.684275 1.42399907 15.1307216 5.97755246 14.7771682 5.62399907"></polygon>
                </g>
                <g id="编组-7" transform="translate(51.804416, 21.238372) scale(-1, 1) rotate(50.000000) translate(-51.804416, -21.238372) translate(37.304416, 12.738372)">
                    <g id="直线-3" transform="translate(-0.000000, 0.381549)">
                        <rect id="蒙版" fill="#12D3EF" x="0.233955557" y="1.02566386" width="28" height="14" rx="7"></rect>
                        <polygon fill="#F6F7FA" fill-rule="nonzero" transform="translate(10.509612, 3.324399) scale(-1, 1) translate(-10.509612, -3.324399) " points="12.6096123 0.870845996 12.9631657 1.22439939 8.40961233 5.77795278 8.05605894 5.42439939"></polygon>
                        <polygon fill="#F6F7FA" fill-rule="nonzero" points="13.3531487 9.85336023 13.706702 10.2069136 9.15314865 14.760467 8.79959526 14.4069136"></polygon>
                        <polygon fill="#F6F7FA" fill-rule="nonzero" transform="translate(21.137481, 3.104389) scale(-1, 1) translate(-21.137481, -3.104389) " points="23.2374811 0.650835772 23.5910345 1.00438916 19.0374811 5.55794255 18.6839277 5.20438916"></polygon>
                    </g>
                </g>
                <path d="M46.3994953,24.0106177 L47.4005047,24.9893823 C43.8829438,28.5868878 41.2093377,32.9557788 39.3786836,38.1030128 L39.1630512,38.7244173 L37.8369488,38.2755827 C39.6661788,32.8710397 42.3809532,28.2591628 45.9802647,24.4469403 L46.3994953,24.0106177 Z" id="路径-8" fill="#282C33" fill-rule="nonzero"></path>
                <path d="M30.3259337,21.184965 L31.2740663,22.215035 C26.5409989,26.5716085 22.9521307,31.8634766 20.5043485,38.098078 L20.2552,38.7464 L18.9448,38.2536 C21.3875616,31.7580748 25.0150728,26.2224286 29.8242206,21.6540998 L30.3259337,21.184965 Z" id="路径-8" fill="#282C33" fill-rule="nonzero" transform="translate(25.109433, 29.965682) scale(-1, 1) translate(-25.109433, -29.965682) "></path>
                <path d="M25.710676,6.52124121 C32.7321714,14.0108362 36.0622693,24.4675175 35.7197696,37.8524376 L35.6995842,38.5241236 L34.3004158,38.4758764 C34.7534083,25.3390929 31.6567934,15.142474 25.0293552,7.84720444 L24.689324,7.47875879 L25.710676,6.52124121 Z" id="路径-9" fill="#282C33" fill-rule="nonzero"></path>
                <polygon id="路径-10" fill="#B8D4FF" points="21 38.5 28.7 38.5 32.9 60.9 25.2 60.9"></polygon>
            </g>
            <g id="编组-6" transform="translate(189.000000, 185.000000) scale(-1, 1) translate(-189.000000, -185.000000) translate(174.000000, 158.000000)">
                <path d="M15.1425399,1.17261642 C15.3128469,1.27480064 15.4553822,1.41733598 15.5575664,1.587643 L18.15,5.9083656 L18.15,8.126 L19.6648287,9.13658474 C20.2208584,9.50727122 20.3711088,10.2585231 20.0004223,10.8145528 C19.9118082,10.9474741 19.79775,11.0615323 19.6648287,11.1501465 L18.15,12.16 L18.15,15.386 L19.6648287,16.3965847 C20.2208584,16.7672712 20.3711088,17.5185231 20.0004223,18.0745528 C19.9118082,18.2074741 19.79775,18.3215323 19.6648287,18.4101465 L18.15,19.42 L18.15,26.4783656 L10.89,26.4783656 L10.89,5.9083656 L13.4824336,1.587643 C13.8262528,1.01461088 14.5695077,0.828797152 15.1425399,1.17261642 Z" id="形状结合" fill="#B8D4FF"></path>
                <path d="M12.8821885,1.22749597 L10.19,5.71447683 L10.19,27.1783656 L18.85,27.1783656 L18.85,19.794 L20.0531103,18.9925874 C20.2629367,18.8527031 20.442979,18.6726608 20.5828575,18.462843 L20.6684399,18.3218304 C21.1412509,17.4619798 20.8846239,16.3684863 20.0531189,15.8141495 L18.85,15.011 L18.85,12.534 L20.0531103,11.7325874 C20.2629367,11.5927031 20.442979,11.4126608 20.5828575,11.202843 L20.6684399,11.0618304 C21.1412509,10.2019798 20.8846239,9.10848625 20.0531189,8.55414954 L18.85,7.751 L18.85,5.71447683 L16.1578115,1.22749597 C15.9965124,0.958664228 15.7715186,0.733670423 15.5026869,0.572371377 C14.5981486,0.029648392 13.4249115,0.322957664 12.8821885,1.22749597 Z M14.850077,1.82140365 C14.8923367,1.85728271 14.9286085,1.89993516 14.9573214,1.94779003 L17.45,6.103 L17.45,8.50048485 L19.2763526,9.71889592 C19.5108982,9.8752597 19.5742269,10.1919031 19.4179871,10.4262627 C19.3806374,10.4822874 19.3325632,10.5303615 19.2765386,10.5677113 L17.45,11.7853647 L17.45,15.7604849 L19.2763526,16.9788959 C19.5108982,17.1352597 19.5742269,17.4519031 19.4179871,17.6862627 C19.3806374,17.7422874 19.3325632,17.7903615 19.2765386,17.8277113 L17.45,19.0453647 L17.45,25.778 L11.59,25.778 L11.59,6.101 L14.0826786,1.94779003 C14.2275942,1.70626409 14.5408669,1.62794591 14.7823928,1.77286147 L14.850077,1.82140365 Z" id="形状结合" fill="#282C33" fill-rule="nonzero"></path>
                <polygon id="直线-6" fill="#282C33" fill-rule="nonzero" points="14.615 8.2333656 14.615 19.3133656 13.215 19.3133656 13.215 8.2333656"></polygon>
                <path d="M14.52,24.0583656 C22.5391746,24.0583656 29.04,30.559191 29.04,38.5783656 C29.04,46.5975402 22.5391746,53.0983656 14.52,53.0983656 C6.50082543,53.0983656 0,46.5975402 0,38.5783656 C0,30.559191 6.50082543,24.0583656 14.52,24.0583656 Z M14.52,32.5283656 C11.1786773,32.5283656 8.47,35.2370429 8.47,38.5783656 C8.47,41.9196883 11.1786773,44.6283656 14.52,44.6283656 C17.8613227,44.6283656 20.57,41.9196883 20.57,38.5783656 C20.57,35.2370429 17.8613227,32.5283656 14.52,32.5283656 Z" id="形状结合" fill="#282C33"></path>
            </g>
        </g>
    </g>
</svg>