<?xml version="1.0" encoding="UTF-8"?>
<svg width="88px" height="88px" viewBox="0 0 88 88" version="1.1" xmlns="http://www.w3.org/2000/svg" xmlns:xlink="http://www.w3.org/1999/xlink">
    <title>画板</title>
    <g id="画板" stroke="none" stroke-width="1" fill="none" fill-rule="evenodd">
        <g id="编组-4" transform="translate(0.000000, 12.000000)">
            <path d="M4,0 L84,0 C86.209139,-4.05812251e-16 88,1.790861 88,4 L88,60 C88,62.209139 86.209139,64 84,64 L4,64 C1.790861,64 2.705415e-16,62.209139 0,60 L0,4 C-2.705415e-16,1.790861 1.790861,4.05812251e-16 4,0 Z" id="Rectangle" fill="#528FFF"></path>
            <g id="编组-5" transform="translate(12.000000, 23.800000)" fill="#195AD1">
                <path d="M17.994319,9.9380104 L31.3793103,26 L31.3793103,26 L6.40512484,26 C4.74827059,26 3.40512484,24.6568542 3.40512484,23 C3.40512484,22.2981905 3.6511735,21.6185918 4.100461,21.0794468 L13.3849913,9.9380104 C14.4456836,8.66517971 16.3373777,8.49320752 17.6102084,9.55389976 C17.7495976,9.67005742 17.8781613,9.7986212 17.994319,9.9380104 Z" id="三角形"></path>
                <path d="M46.6560105,2.79267941 L61.7963836,21.0872969 C62.8527404,22.363728 62.6743349,24.2548262 61.3979038,25.311183 C60.8599344,25.756399 60.1835046,26 59.4852006,26 L22.8275862,26 L22.8275862,26 L42.0336446,2.79267941 C43.0900014,1.51624831 44.9810996,1.33784282 46.2575307,2.39419959 C46.4025662,2.51422892 46.5359812,2.64764398 46.6560105,2.79267941 Z" id="三角形"></path>
            </g>
            <circle id="椭圆形" fill="#62DBED" cx="29" cy="18.8" r="6"></circle>
        </g>
    </g>
</svg>