<?xml version="1.0" encoding="UTF-8"?>
<svg width="252px" height="156px" viewBox="0 0 252 156" version="1.1" xmlns="http://www.w3.org/2000/svg" xmlns:xlink="http://www.w3.org/1999/xlink">
    <title>illustration</title>
    <g id="illustration" stroke="none" stroke-width="1" fill="none" fill-rule="evenodd">
        <g id="---地址错误---" transform="translate(-1.000000, -56.000000)">
            <g id="编组-3">
                <g id="Triangle-2" transform="translate(39.000000, 0.000000)">
                    <path d="M130.764343,77.8421799 L175.891498,153.292873 C183.829111,166.564225 179.505261,183.757487 166.233909,191.695099 C161.890032,194.293177 156.923139,195.665191 151.861591,195.665191 L61.6072806,195.665191 C46.1433076,195.665191 33.6072806,183.129164 33.6072806,167.665191 C33.6072806,162.603643 34.9792946,157.63675 37.5773728,153.292873 L82.7045278,77.8421799 C90.64214,64.5708283 107.835402,60.2469782 121.106754,68.1845904 C125.073769,70.5572671 128.391667,73.875165 130.764343,77.8421799 Z" id="Triangle" fill="#EBEDF5" transform="translate(106.734436, 116.665191) rotate(70.000000) translate(-106.734436, -116.665191) "></path>
                    <g id="编组-15" transform="translate(17.314234, 105.768265) rotate(-20.000000) translate(-17.314234, -105.768265) translate(9.314234, 97.768265)" fill="#282C33" fill-rule="nonzero">
                        <g id="Group" transform="translate(0.375430, 0.815450)">
                            <path d="M7.59498547,2.79079012 C6.80471291,2.79079012 6.08475378,3.19356739 5.66413041,3.83946542 L5.56791183,3.99857055 L2.78850013,8.7566076 C2.59634421,9.11214602 2.50024755,9.48830357 2.50024755,9.87677563 C2.50024755,11.1540219 3.53165684,12.1907901 4.80591944,12.1907901 C5.60137074,12.1907901 6.32536538,11.7827099 6.74664196,11.1274853 L7.755,9.403 L8.79958152,11.1880533 C9.2349057,11.8698112 9.96083674,12.2771579 10.7554762,12.2771579 C12.029713,12.2771579 13.0613456,11.2406357 13.0613456,9.96380462 C13.0613456,9.53084688 12.9419981,9.11373231 12.7202744,8.75190875 L9.92167782,3.96403079 L9.81967017,3.81669696 C9.46439497,3.34113894 8.95951465,3.02296097 8.39177392,2.91713981 L8.3,2.903 L8.38487571,2.93040911 C8.13358843,2.83841406 7.86702645,2.79079012 7.59498547,2.79079012 Z M7.59498547,4.19079012 C7.70220037,4.19079012 7.80589574,4.20931633 7.90358155,4.24507863 L8.06880462,4.28366859 C8.33886392,4.3129375 8.58054362,4.4652612 8.72825952,4.69540157 L11.5191007,9.47091505 C11.6143434,9.6266279 11.6613456,9.79089858 11.6613456,9.96380462 C11.6613456,10.4689151 11.2550286,10.8771579 10.7554762,10.8771579 C10.4439999,10.8771579 10.1599767,10.717782 9.99360853,10.4576296 L7.75445578,6.62648937 L5.61391134,10.2929069 C5.44195281,10.6071436 5.14000162,10.7907901 4.80591944,10.7907901 C4.30648425,10.7907901 3.90024755,10.3824427 3.90024755,9.87677563 C3.90024755,9.72165745 3.93806185,9.57363841 4.00938671,9.44136669 L6.79087848,4.68147854 C6.96285804,4.37200763 7.26307801,4.19079012 7.59498547,4.19079012 Z" id="形状结合" transform="translate(7.780797, 7.533974) rotate(50.000000) translate(-7.780797, -7.533974) "></path>
                        </g>
                    </g>
                    <path d="M173,137.3 C170.404262,137.3 168.3,139.404262 168.3,142 C168.3,144.595738 170.404262,146.7 173,146.7 C175.595738,146.7 177.7,144.595738 177.7,142 C177.7,139.404262 175.595738,137.3 173,137.3 Z M173,138.7 C174.82254,138.7 176.3,140.17746 176.3,142 C176.3,143.82254 174.82254,145.3 173,145.3 C171.17746,145.3 169.7,143.82254 169.7,142 C169.7,140.17746 171.17746,138.7 173,138.7 Z" id="椭圆形" fill="#282C33" fill-rule="nonzero"></path>
                </g>
                <polygon id="直线" fill="#282C33" fill-rule="nonzero" points="254.15 210.45 254.15 211.85 0.75 211.85 0.75 210.45"></polygon>
            </g>
            <rect id="矩形" fill="#247BFF" x="62" y="123" width="130" height="71"></rect>
            <polygon id="直线-4" fill="#282C33" fill-rule="nonzero" points="154.7 146.8 154.7 148.2 112.3 148.2 112.3 146.8"></polygon>
            <polygon id="直线-4" fill="#282C33" fill-rule="nonzero" points="88.2957188 162.695692 88.3043076 161.295719 171.204281 161.804308 171.195692 163.204281"></polygon>
            <rect id="矩形" fill="#4791FF" x="89" y="171" width="20" height="6" rx="1"></rect>
            <circle id="椭圆形" fill="#12D3EF" cx="97.5" cy="149.5" r="7.5"></circle>
            <g id="编组-9" transform="translate(92.000000, 144.000000)" fill="#FFFFFF" fill-rule="nonzero">
                <g id="编组-10">
                    <path d="M3.5,0 C3.74545989,0 3.94960837,0.176875161 3.99194433,0.410124368 L4,0.5 L4,6.5 C4,6.77614237 3.77614237,7 3.5,7 C3.25454011,7 3.05039163,6.82312484 3.00805567,6.58987563 L3,6.5 L3,0.5 C3,0.223857625 3.22385763,0 3.5,0 Z" id="直线-5" transform="translate(3.500000, 3.500000) rotate(-45.000000) translate(-3.500000, -3.500000) "></path>
                    <path d="M3.5,0 C3.74545989,0 3.94960837,0.176875161 3.99194433,0.410124368 L4,0.5 L4,6.5 C4,6.77614237 3.77614237,7 3.5,7 C3.25454011,7 3.05039163,6.82312484 3.00805567,6.58987563 L3,6.5 L3,0.5 C3,0.223857625 3.22385763,0 3.5,0 Z" id="直线-5" transform="translate(3.500000, 3.500000) rotate(-135.000000) translate(-3.500000, -3.500000) "></path>
                </g>
            </g>
            <path d="M95.5,139.3 C90.9712651,139.3 87.3,142.971265 87.3,147.5 C87.3,152.028735 90.9712651,155.7 95.5,155.7 C100.028735,155.7 103.7,152.028735 103.7,147.5 C103.7,142.971265 100.028735,139.3 95.5,139.3 Z M95.5,140.7 C99.2555363,140.7 102.3,143.744464 102.3,147.5 C102.3,151.255536 99.2555363,154.3 95.5,154.3 C91.7444637,154.3 88.7,151.255536 88.7,147.5 C88.7,143.744464 91.7444637,140.7 95.5,140.7 Z" id="椭圆形" fill="#282C33" fill-rule="nonzero"></path>
            <rect id="矩形" fill="#282C33" x="62" y="123" width="130" height="6"></rect>
            <path d="M68,124.7 C67.2820298,124.7 66.7,125.28203 66.7,126 C66.7,126.71797 67.2820298,127.3 68,127.3 C68.7179702,127.3 69.3,126.71797 69.3,126 C69.3,125.28203 68.7179702,124.7 68,124.7 Z M68,125.3 C68.3865993,125.3 68.7,125.613401 68.7,126 C68.7,126.386599 68.3865993,126.7 68,126.7 C67.6134007,126.7 67.3,126.386599 67.3,126 C67.3,125.613401 67.6134007,125.3 68,125.3 Z" id="椭圆形" fill="#FFFFFF" fill-rule="nonzero"></path>
            <path d="M72,124.7 C71.2820298,124.7 70.7,125.28203 70.7,126 C70.7,126.71797 71.2820298,127.3 72,127.3 C72.7179702,127.3 73.3,126.71797 73.3,126 C73.3,125.28203 72.7179702,124.7 72,124.7 Z M72,125.3 C72.3865993,125.3 72.7,125.613401 72.7,126 C72.7,126.386599 72.3865993,126.7 72,126.7 C71.6134007,126.7 71.3,126.386599 71.3,126 C71.3,125.613401 71.6134007,125.3 72,125.3 Z" id="椭圆形" fill="#FFFFFF" fill-rule="nonzero"></path>
            <path d="M76,124.7 C75.2820298,124.7 74.7,125.28203 74.7,126 C74.7,126.71797 75.2820298,127.3 76,127.3 C76.7179702,127.3 77.3,126.71797 77.3,126 C77.3,125.28203 76.7179702,124.7 76,124.7 Z M76,125.3 C76.3865993,125.3 76.7,125.613401 76.7,126 C76.7,126.386599 76.3865993,126.7 76,126.7 C75.6134007,126.7 75.3,126.386599 75.3,126 C75.3,125.613401 75.6134007,125.3 76,125.3 Z" id="椭圆形" fill="#FFFFFF" fill-rule="nonzero"></path>
            <path d="M188,115.3 L66,115.3 C63.4042617,115.3 61.3,117.404262 61.3,120 L61.3,196 C61.3,198.595738 63.4042617,200.7 66,200.7 L188,200.7 C190.595738,200.7 192.7,198.595738 192.7,196 L192.7,120 C192.7,117.404262 190.595738,115.3 188,115.3 Z M66,116.7 L188,116.7 C189.82254,116.7 191.3,118.17746 191.3,120 L191.3,196 C191.3,197.82254 189.82254,199.3 188,199.3 L66,199.3 C64.1774603,199.3 62.7,197.82254 62.7,196 L62.7,120 C62.7,118.17746 64.1774603,116.7 66,116.7 Z" id="矩形" fill="#282C33" fill-rule="nonzero"></path>
            <path d="M144.5,205.3 L109.5,205.3 C107.732689,205.3 106.3,206.732689 106.3,208.5 C106.3,210.267311 107.732689,211.7 109.5,211.7 L144.5,211.7 C146.267311,211.7 147.7,210.267311 147.7,208.5 C147.7,206.732689 146.267311,205.3 144.5,205.3 Z M109.5,206.7 L144.5,206.7 C145.494113,206.7 146.3,207.505887 146.3,208.5 C146.3,209.494113 145.494113,210.3 144.5,210.3 L109.5,210.3 C108.505887,210.3 107.7,209.494113 107.7,208.5 C107.7,207.505887 108.505887,206.7 109.5,206.7 Z" id="矩形" fill="#282C33" fill-rule="nonzero"></path>
            <g id="flower" transform="translate(6.000000, 151.000000)">
                <polygon id="矩形" fill="#4791FF" points="21 37.5 49 37.5 44.9219142 59.9 25.0780858 59.9"></polygon>
                <g id="编组-7" transform="translate(15.525467, 15.932091) rotate(50.000000) translate(-15.525467, -15.932091) translate(1.525467, 8.432091)">
                    <rect id="矩形" fill="#247BFF" x="-2.04636308e-12" y="0.45" width="28" height="14" rx="7"></rect>
                    <polygon id="直线-3" fill="#F6F7FA" fill-rule="nonzero" points="12.6 9.89644661 12.9535534 10.25 8.4 14.8035534 8.04644661 14.45"></polygon>
                    <polygon id="直线-3" fill="#F6F7FA" fill-rule="nonzero" transform="translate(21.027628, 3.047498) scale(-1, 1) translate(-21.027628, -3.047498) " points="23.1276284 0.593944802 23.4811818 0.947498192 18.9276284 5.50105158 18.574075 5.14749819"></polygon>
                </g>
                <g id="编组-7" transform="translate(51.866044, 19.942788) scale(-1, 1) rotate(50.000000) translate(-51.866044, -19.942788) translate(37.866044, 11.942788)">
                    <g id="直线-3" transform="translate(-0.000000, 0.381549)">
                        <rect id="蒙版" fill="#12D3EF" x="1.70530257e-12" y="0.668451472" width="28" height="14" rx="7"></rect>
                        <polygon fill="#F6F7FA" fill-rule="nonzero" transform="translate(10.288976, 2.978363) scale(-1, 1) translate(-10.288976, -2.978363) " points="12.3889756 0.524809438 12.742529 0.878362829 8.18897561 5.43191622 7.83542222 5.07836283"></polygon>
                        <polygon fill="#F6F7FA" fill-rule="nonzero" points="13.2427876 9.34885364 13.596341 9.70240703 9.04278761 14.2559604 8.68923422 13.902407"></polygon>
                        <polygon fill="#F6F7FA" fill-rule="nonzero" transform="translate(20.632112, 2.915062) scale(-1, 1) translate(-20.632112, -2.915062) " points="22.343915 0.915062472 22.632112 1.20325949 18.920309 4.91506247 18.632112 4.62686545"></polygon>
                    </g>
                </g>
                <path d="M46.3994953,23.0106177 L47.4005047,23.9893823 C43.8829438,27.5868878 41.2093377,31.9557788 39.3786836,37.1030128 L39.1630512,37.7244173 L37.8369488,37.2755827 C39.6661788,31.8710397 42.3809532,27.2591628 45.9802647,23.4469403 L46.3994953,23.0106177 Z" id="路径-8" fill="#282C33" fill-rule="nonzero"></path>
                <path d="M30.3259337,20.184965 L31.2740663,21.215035 C26.5409989,25.5716085 22.9521307,30.8634766 20.5043485,37.098078 L20.2552,37.7464 L18.9448,37.2536 C21.3875616,30.7580748 25.0150728,25.2224286 29.8242206,20.6540998 L30.3259337,20.184965 Z" id="路径-8" fill="#282C33" fill-rule="nonzero" transform="translate(25.109433, 28.965682) scale(-1, 1) translate(-25.109433, -28.965682) "></path>
                <path d="M25.710676,5.52124121 C32.7321714,13.0108362 36.0622693,23.4675175 35.7197696,36.8524376 L35.6995842,37.5241236 L34.3004158,37.4758764 C34.7534083,24.3390929 31.6567934,14.142474 25.0293552,6.84720444 L24.689324,6.47875879 L25.710676,5.52124121 Z" id="路径-9" fill="#282C33" fill-rule="nonzero"></path>
                <polygon id="路径-10" fill="#B8D4FF" points="21 37.5 28.7 37.5 32.9 59.9 25.2 59.9"></polygon>
            </g>
            <rect id="矩形" fill="#FFFFFF" x="176" y="177" width="54" height="34" rx="2"></rect>
            <path d="M228,176.3 L178,176.3 C176.508831,176.3 175.3,177.508831 175.3,179 L175.3,209 C175.3,210.491169 176.508831,211.7 178,211.7 L228,211.7 C229.491169,211.7 230.7,210.491169 230.7,209 L230.7,179 C230.7,177.508831 229.491169,176.3 228,176.3 Z M178,177.7 L228,177.7 C228.71797,177.7 229.3,178.28203 229.3,179 L229.3,209 C229.3,209.71797 228.71797,210.3 228,210.3 L178,210.3 C177.28203,210.3 176.7,209.71797 176.7,209 L176.7,179 C176.7,178.28203 177.28203,177.7 178,177.7 Z" id="矩形" fill="#282C33" fill-rule="nonzero"></path>
            <g id="编组-16" transform="translate(184.000000, 180.000000)" fill="#282C33" fill-rule="nonzero">
                <path d="M5.55,11.02 L5.55,9.99 L1.85,8.42 L5.55,6.85 L5.55,5.82 L0.5,8 L0.5,8.84 L5.55,11.02 Z M9.88,11.02 L14.93,8.84 L14.93,8 L9.88,5.82 L9.88,6.85 L13.58,8.42 L9.88,9.99 L9.88,11.02 Z" id="&lt;&gt;"></path>
                <path d="M5.55,11.32 L5.55,10.29 L1.85,8.72 L5.55,7.15 L5.55,6.12 L0.5,8.3 L0.5,9.14 L5.55,11.32 Z M9.88,11.32 L14.93,9.14 L14.93,8.3 L9.88,6.12 L9.88,7.15 L13.58,8.72 L9.88,10.29 L9.88,11.32 Z" id="&lt;&gt;"></path>
            </g>
            <polygon id="直线-4" fill="#282C33" fill-rule="nonzero" points="219.7 187.8 219.7 189.2 203.8 189.2 203.8 187.8"></polygon>
            <polygon id="直线-4" fill="#282C33" fill-rule="nonzero" points="216.2 198.8 216.2 200.2 184.8 200.2 184.8 198.8"></polygon>
        </g>
    </g>
</svg>