<svg width="220" height="160" viewBox="0 0 220 160" fill="none" xmlns="http://www.w3.org/2000/svg">
<rect x="37" y="50" width="146" height="94" rx="12" fill="url(#paint0_linear_2539_132191)"/>
<mask id="mask0_2539_132191" style="mask-type:alpha" maskUnits="userSpaceOnUse" x="37" y="50" width="146" height="94">
<rect x="37" y="50" width="146" height="94" rx="12" fill="url(#paint1_linear_2539_132191)"/>
</mask>
<g mask="url(#mask0_2539_132191)">
<rect x="1" y="100" width="106" height="26" rx="6" fill="url(#paint2_linear_2539_132191)"/>
<path opacity="0.8" d="M166.497 28.2416C169.931 22.6396 178.069 22.6396 181.503 28.2416L203.788 64.6015C207.382 70.4651 203.162 78 196.285 78H151.715C144.838 78 140.618 70.4651 144.212 64.6015L166.497 28.2416Z" fill="url(#paint3_linear_2539_132191)"/>
<rect opacity="0.6" x="50" y="81.9999" width="51" height="34" fill="url(#paint4_linear_2539_132191)"/>
<path opacity="0.6" fill-rule="evenodd" clip-rule="evenodd" d="M170 81.9998H110V85.9998H170V81.9998ZM170 91.9998H110V95.9998H170V91.9998ZM110 102H170V106H110V102ZM147 112H110V116H147V112Z" fill="url(#paint5_linear_2539_132191)"/>
</g>
<line x1="37" y1="65.4999" x2="180" y2="65.4999" stroke="white"/>
<circle cx="47.7" cy="57.7001" r="1.7" fill="#757B94"/>
<circle cx="54.5008" cy="57.7001" r="1.7" fill="#757B94"/>
<circle cx="61.2996" cy="57.7001" r="1.7" fill="#757B94"/>
<rect x="50" y="72.9999" width="32" height="4" rx="2" fill="#0066FF"/>
<rect x="6.6" y="93.5999" width="92.8" height="24.8" rx="5.4" fill="#EBEDF5" fill-opacity="0.6" stroke="#282C33" stroke-width="1.2"/>
<ellipse cx="19.6784" cy="105.537" rx="5.67837" ry="5.73752" stroke="#848B99" stroke-width="1.32"/>
<path d="M24.0664 109.971L25.9046 111.8" stroke="#848B99" stroke-width="1.32" stroke-linecap="square" stroke-linejoin="round"/>
<path d="M33.055 103.313L34.991 109H35.816L37.158 104.424L38.478 109H39.314L41.25 103.313H40.282L38.885 107.922L37.565 103.313H36.74L35.42 107.922L34.023 103.313H33.055ZM41.3587 103.313L43.2947 109H44.1197L45.4617 104.424L46.7817 109H47.6177L49.5537 103.313H48.5857L47.1887 107.922L45.8687 103.313H45.0437L43.7237 107.922L42.3267 103.313H41.3587ZM49.6624 103.313L51.5984 109H52.4234L53.7654 104.424L55.0854 109H55.9214L57.8574 103.313H56.8894L55.4924 107.922L54.1724 103.313H53.3474L52.0274 107.922L50.6304 103.313H49.6624ZM59.3631 107.691C59.1651 107.691 59.0111 107.757 58.8901 107.889C58.7581 108.021 58.6921 108.175 58.6921 108.373C58.6921 108.56 58.7581 108.714 58.8901 108.846C59.0111 108.978 59.1651 109.044 59.3631 109.044C59.5391 109.044 59.7041 108.978 59.8361 108.846C59.9681 108.714 60.0341 108.56 60.0341 108.373C60.0341 108.175 59.9681 108.021 59.8361 107.889C59.7041 107.757 59.5391 107.691 59.3631 107.691ZM61.1085 103.313L63.1215 105.986L60.8665 109H61.9115L63.6165 106.635L65.3105 109H66.3555L64.1005 105.986L66.1135 103.313H65.0795L63.6165 105.337L62.1425 103.313H61.1085ZM66.7052 103.313L68.7182 105.986L66.4632 109H67.5082L69.2132 106.635L70.9072 109H71.9522L69.6972 105.986L71.7102 103.313H70.6762L69.2132 105.337L67.7392 103.313H66.7052ZM72.3019 103.313L74.3149 105.986L72.0599 109H73.1049L74.8099 106.635L76.5039 109H77.5489L75.2939 105.986L77.3069 103.313H76.2729L74.8099 105.337L73.3359 103.313H72.3019ZM77.8986 103.313L79.9116 105.986L77.6566 109H78.7016L80.4066 106.635L82.1006 109H83.1456L80.8906 105.986L82.9036 103.313H81.8696L80.4066 105.337L78.9326 103.313H77.8986ZM83.4952 103.313L85.5082 105.986L83.2532 109H84.2982L86.0032 106.635L87.6972 109H88.7422L86.4872 105.986L88.5002 103.313H87.4662L86.0032 105.337L84.5292 103.313H83.4952Z" fill="#0066FF"/>
<path fill-rule="evenodd" clip-rule="evenodd" d="M13.8065 64.0729C14.5878 62.6899 15.9286 61.7574 17.822 61.25C19.4596 60.8112 20.9062 60.8877 22.1753 61.5302C23.4377 62.1473 24.277 63.2326 24.6864 64.7606C25.0208 66.0085 24.9679 67.1418 24.5466 68.1281C24.3914 68.47 23.8523 69.3241 22.9295 70.6905C22.5525 71.2282 22.3171 71.7826 22.2097 72.3027C22.0647 72.8875 22.0869 73.482 22.2506 74.0932L22.3667 74.5262L19.6288 75.2598L19.5128 74.8268C19.2603 73.8846 19.1955 73.0285 19.3763 72.2704C19.5178 71.4682 20.2104 70.1635 21.4215 68.3377L21.7268 67.7373C22.0305 67.0281 22.1226 66.3484 21.9451 65.6862C21.7063 64.7949 21.2662 64.1758 20.6435 63.7968C19.9953 63.4245 19.185 63.3687 18.2639 63.6155C17.1125 63.924 16.3636 64.5068 16.0498 65.3825C15.7529 66.1171 15.7547 67.0447 16.0549 68.1653L13.3682 68.8851C12.8701 67.0261 13.0185 65.4305 13.8065 64.0729ZM20.679 76.5315C20.0922 76.6888 19.744 77.2919 19.9012 77.8788L20.2118 79.0379C20.3691 79.6247 20.9722 79.9729 21.559 79.8157L22.7181 79.5051C23.305 79.3479 23.6532 78.7447 23.496 78.1579L23.1854 76.9988C23.0281 76.412 22.425 76.0637 21.8382 76.221L20.679 76.5315Z" fill="#D3D9E6"/>
<path fill-rule="evenodd" clip-rule="evenodd" d="M27.0659 38.0618C28.434 37.2546 30.0614 37.1175 31.9548 37.6248C33.5924 38.0636 34.807 38.8531 35.5848 40.0441C36.3695 41.2097 36.5537 42.5693 36.1443 44.0973C35.8099 45.3452 35.1975 46.3002 34.3394 46.9437C34.0341 47.1622 33.1402 47.6323 31.6578 48.3542C31.0625 48.6314 30.5814 48.9939 30.2283 49.3906C29.8104 49.8245 29.5323 50.3505 29.3685 50.9617L29.2525 51.3946L26.5147 50.661L26.6307 50.2281C26.8832 49.2858 27.255 48.512 27.7907 47.9458C28.3144 47.3219 29.5665 46.5383 31.5282 45.5627L32.0929 45.1954C32.7104 44.733 33.13 44.1904 33.3075 43.5282C33.5463 42.6369 33.4747 41.8807 33.125 41.2411C32.7497 40.5947 32.0759 40.1412 31.1548 39.8943C30.0033 39.5858 29.0634 39.7161 28.3538 40.3175C27.7294 40.8053 27.2671 41.6095 26.9669 42.73L24.2802 42.0101C24.7783 40.1511 25.7046 38.8434 27.0659 38.0618ZM26.7883 52.2875C26.2015 52.1303 25.5984 52.4785 25.4411 53.0653L25.1305 54.2244C24.9733 54.8113 25.3215 55.4144 25.9084 55.5717L27.0675 55.8822C27.6543 56.0395 28.2575 55.6912 28.4147 55.1044L28.7253 53.9453C28.8825 53.3585 28.5343 52.7553 27.9475 52.5981L26.7883 52.2875Z" fill="#D3D9E6"/>
<path d="M168.866 36.4915C171.2 32.6308 176.8 32.6308 179.134 36.4915L194.495 61.8955C196.913 65.8943 194.033 71 189.361 71H158.639C153.967 71 151.087 65.8942 153.505 61.8955L168.866 36.4915Z" fill="#0066FF"/>
<path fill-rule="evenodd" clip-rule="evenodd" d="M172.401 43C171.77 43 171.268 43.5301 171.302 44.1604L171.791 53.0488L172.721 57.7451C172.823 58.2602 173.275 58.6315 173.8 58.6315H174.202C174.727 58.6315 175.179 58.2602 175.281 57.7451L176.211 53.0488L176.699 44.1604C176.734 43.5301 176.232 43 175.601 43H172.401ZM172.798 60.1025C172.191 60.1025 171.698 60.595 171.698 61.2025V63.6C171.698 64.2075 172.191 64.7 172.798 64.7H175.202C175.81 64.7 176.302 64.2075 176.302 63.6V61.2025C176.302 60.595 175.81 60.1025 175.202 60.1025H172.798Z" fill="url(#paint6_linear_2539_132191)"/>
<defs>
<linearGradient id="paint0_linear_2539_132191" x1="37" y1="50" x2="183" y2="50" gradientUnits="userSpaceOnUse">
<stop stop-color="#CFD4E6"/>
<stop offset="1" stop-color="#DBE0F0"/>
</linearGradient>
<linearGradient id="paint1_linear_2539_132191" x1="37" y1="50" x2="183" y2="50" gradientUnits="userSpaceOnUse">
<stop stop-color="#B1B5C4"/>
<stop offset="1" stop-color="#E4E9F3"/>
</linearGradient>
<linearGradient id="paint2_linear_2539_132191" x1="26.5" y1="109.5" x2="106" y2="124" gradientUnits="userSpaceOnUse">
<stop stop-color="#BDC3D7"/>
<stop offset="1" stop-color="#CFD4E6"/>
</linearGradient>
<linearGradient id="paint3_linear_2539_132191" x1="142.861" y1="69.5932" x2="170.752" y2="64.2374" gradientUnits="userSpaceOnUse">
<stop stop-color="#B6BDD2"/>
<stop offset="1" stop-color="#D7DDEC"/>
</linearGradient>
<linearGradient id="paint4_linear_2539_132191" x1="50" y1="103.387" x2="102.53" y2="103.387" gradientUnits="userSpaceOnUse">
<stop stop-color="#DFE3F0"/>
<stop offset="1" stop-color="white" stop-opacity="0.5"/>
</linearGradient>
<linearGradient id="paint5_linear_2539_132191" x1="110" y1="103.387" x2="171.8" y2="103.387" gradientUnits="userSpaceOnUse">
<stop stop-color="#DFE3F0"/>
<stop offset="1" stop-color="white" stop-opacity="0.5"/>
</linearGradient>
<linearGradient id="paint6_linear_2539_132191" x1="172.946" y1="46.4983" x2="182.038" y2="49.815" gradientUnits="userSpaceOnUse">
<stop offset="0.0198017" stop-color="white"/>
<stop offset="1" stop-color="white" stop-opacity="0.55"/>
</linearGradient>
</defs>
</svg>
