<?xml version="1.0" encoding="UTF-8"?>
<svg width="87px" height="76px" viewBox="0 0 87 76" version="1.1" xmlns="http://www.w3.org/2000/svg" xmlns:xlink="http://www.w3.org/1999/xlink">
    <title>URL错误</title>
    <g id="页面-1" stroke="none" stroke-width="1" fill="none" fill-rule="evenodd">
        <g id="url错误" transform="translate(-676.000000, -469.000000)">
            <g id="编组-2" transform="translate(650.000000, 460.000000)">
                <g id="URL错误" transform="translate(20.000000, 0.000000)">
                    <rect id="矩形" x="0" y="0" width="100" height="100"></rect>
                    <g id="编组-26" transform="translate(5.000000, 11.000000)">
                        <path d="M69.6467228,10.5212032 C63.1338275,4.01997423 54.1432973,0 44.2138519,0 C24.331601,0 8.21385194,16.117749 8.21385194,36 C8.21385194,55.882251 24.331601,72 44.2138519,72 C64.0961029,72 80.2138519,55.882251 80.2138519,36 C80.2138519,30.3735121 78.9230843,25.0484991 76.6215095,20.3049214" id="路径" stroke="#A8B0BF" stroke-width="2.8" stroke-linecap="round" stroke-linejoin="round"></path>
                        <path d="M31.91182,62.4135474 C30.0338832,63.9916348 29.0687461,68.5393069 32.083541,71.3095389 C35.0983359,74.079771 39.1464997,71.5547381 41.7796298,72.123414 C44.4127599,72.69209 45.6349985,76.3007265 49.151041,73.1159829" id="路径" stroke="#A8B0BF" stroke-width="2.8" stroke-linecap="round" transform="translate(39.651041, 68.413547) scale(-1, -1) rotate(-19.000000) translate(-39.651041, -68.413547) "></path>
                        <path d="M58.7340908,8.32360296 C58.7340908,5.56217921 56.4955146,3.32360296 53.7340908,3.32360296 C50.9726671,3.32360296 48.7340908,5.56217921 48.7340908,8.32360296" id="路径" stroke="#A8B0BF" stroke-width="2.8" stroke-linecap="round" transform="translate(53.734091, 5.823603) scale(1, -1) rotate(-22.000000) translate(-53.734091, -5.823603) "></path>
                        <path d="M29.2980544,10.2198302 C30.1433206,9.75116834 31.2084698,10.0564666 31.6771316,10.9017328 C32.1457935,11.7469991 31.8404952,12.8121483 30.9952289,13.2808101 C24.3052415,16.9901048 19.4316222,23.3710927 17.6673958,30.8413579 C17.4452522,31.7819807 16.5026438,32.3644231 15.562021,32.1422795 C14.6213982,31.9201359 14.0389558,30.9775275 14.2610994,30.0369048 C16.2530633,21.6023306 21.7504697,14.4046236 29.2980544,10.2198302 Z" id="路径" fill="#E2E6F0" fill-rule="nonzero"></path>
                        <circle id="椭圆形" fill="#E2E6F0" cx="14.9638519" cy="36.75" r="1.75"></circle>
                        <path d="M9.85358549,28.4085341 C4.53777129,30.738146 2,33.2085094 2,36.3336485 C2,41.8733697 11.8824357,46.6615949 26.2205853,48.9314844 M35.3412549,49.9790668 C38.4460063,50.2110755 41.679038,50.3336485 45,50.3336485 C68.7482442,50.3336485 88,44.065635 88,36.3336485 C88,33.3462817 85.5339159,30.4882748 80.482257,29.1346868" id="形状" stroke="#A8B0BF" stroke-width="2.8" stroke-linecap="round" stroke-linejoin="round" transform="translate(45.000000, 39.371091) rotate(-15.000000) translate(-45.000000, -39.371091) "></path>
                    </g>
                </g>
            </g>
        </g>
    </g>
</svg>