<svg width="220" height="160" viewBox="0 0 220 160" fill="none" xmlns="http://www.w3.org/2000/svg">
<rect x="37" y="50" width="146" height="94" rx="12" fill="url(#paint0_linear_12185_156103)"/>
<mask id="mask0_12185_156103" style="mask-type:alpha" maskUnits="userSpaceOnUse" x="37" y="50" width="146" height="94">
<rect x="37" y="50" width="146" height="94" rx="12" fill="url(#paint1_linear_12185_156103)"/>
</mask>
<g mask="url(#mask0_12185_156103)">
<rect x="1" y="100" width="99" height="26" rx="6" fill="url(#paint2_linear_12185_156103)"/>
<path opacity="0.8" d="M166.497 28.2416C169.931 22.6396 178.069 22.6396 181.503 28.2416L203.788 64.6015C207.382 70.4651 203.162 78 196.285 78H151.715C144.838 78 140.618 70.4651 144.212 64.6015L166.497 28.2416Z" fill="url(#paint3_linear_12185_156103)"/>
<rect opacity="0.6" x="50" y="82" width="51" height="34" fill="url(#paint4_linear_12185_156103)"/>
<path opacity="0.6" fill-rule="evenodd" clip-rule="evenodd" d="M170 81.9998H110V85.9998H170V81.9998ZM170 91.9998H110V95.9998H170V91.9998ZM110 102H170V106H110V102ZM147 112H110V116H147V112Z" fill="url(#paint5_linear_12185_156103)"/>
</g>
<line x1="37" y1="65.5" x2="180" y2="65.5" stroke="white"/>
<circle cx="47.7" cy="57.7" r="1.7" fill="#757B94"/>
<circle cx="54.5008" cy="57.7" r="1.7" fill="#757B94"/>
<circle cx="61.2996" cy="57.7" r="1.7" fill="#757B94"/>
<rect x="50" y="73" width="32" height="4" rx="2" fill="#0066FF"/>
<rect x="6.6" y="93.6" width="84.8" height="23.8" rx="5.4" fill="#EBEDF5" fill-opacity="0.6" stroke="#282C33" stroke-width="1.2"/>
<rect x="31" y="102" width="48" height="7" rx="3.5" fill="#C4CADD"/>
<rect x="14" y="100" width="11" height="11" rx="3" fill="#0066FF"/>
<path fill-rule="evenodd" clip-rule="evenodd" d="M13.8065 64.0729C14.5878 62.6899 15.9286 61.7575 17.822 61.2501C19.4596 60.8113 20.9062 60.8877 22.1753 61.5303C23.4377 62.1474 24.277 63.2327 24.6864 64.7607C25.0208 66.0086 24.9679 67.1419 24.5466 68.1282C24.3914 68.47 23.8523 69.3242 22.9295 70.6905C22.5525 71.2283 22.3171 71.7827 22.2097 72.3028C22.0647 72.8875 22.0869 73.4821 22.2506 74.0933L22.3667 74.5262L19.6288 75.2598L19.5128 74.8269C19.2603 73.8846 19.1955 73.0285 19.3763 72.2704C19.5178 71.4682 20.2104 70.1635 21.4215 68.3378L21.7268 67.7373C22.0305 67.0282 22.1226 66.3484 21.9451 65.6863C21.7063 64.7949 21.2662 64.1759 20.6435 63.7968C19.9953 63.4246 19.185 63.3688 18.2639 63.6156C17.1125 63.9241 16.3636 64.5069 16.0498 65.3826C15.7529 66.1172 15.7547 67.0448 16.0549 68.1653L13.3682 68.8852C12.8701 67.0261 13.0185 65.4305 13.8065 64.0729ZM20.679 76.5316C20.0922 76.6888 19.744 77.292 19.9012 77.8788L20.2118 79.0379C20.3691 79.6247 20.9722 79.973 21.559 79.8157L22.7181 79.5052C23.305 79.3479 23.6532 78.7448 23.496 78.1579L23.1854 76.9988C23.0281 76.412 22.425 76.0638 21.8382 76.221L20.679 76.5316Z" fill="#D3D9E6"/>
<path fill-rule="evenodd" clip-rule="evenodd" d="M27.0659 38.0618C28.434 37.2547 30.0614 37.1175 31.9548 37.6249C33.5924 38.0637 34.807 38.8532 35.5848 40.0442C36.3695 41.2098 36.5537 42.5693 36.1443 44.0974C35.8099 45.3452 35.1975 46.3003 34.3394 46.9438C34.0341 47.1622 33.1402 47.6324 31.6578 48.3543C31.0625 48.6315 30.5814 48.9939 30.2283 49.3906C29.8104 49.8245 29.5323 50.3505 29.3685 50.9617L29.2525 51.3947L26.5147 50.6611L26.6307 50.2281C26.8832 49.2859 27.255 48.5121 27.7907 47.9459C28.3144 47.322 29.5665 46.5383 31.5282 45.5627L32.0929 45.1954C32.7104 44.7331 33.13 44.1904 33.3075 43.5283C33.5463 42.637 33.4747 41.8808 33.125 41.2412C32.7497 40.5947 32.0759 40.1412 31.1548 39.8944C30.0033 39.5859 29.0634 39.7162 28.3538 40.3176C27.7294 40.8054 27.2671 41.6096 26.9669 42.7301L24.2802 42.0102C24.7783 40.1511 25.7046 38.8435 27.0659 38.0618ZM26.7883 52.2876C26.2015 52.1303 25.5984 52.4786 25.4411 53.0654L25.1305 54.2245C24.9733 54.8113 25.3215 55.4145 25.9084 55.5717L27.0675 55.8823C27.6543 56.0395 28.2575 55.6913 28.4147 55.1045L28.7253 53.9454C28.8825 53.3586 28.5343 52.7554 27.9475 52.5982L26.7883 52.2876Z" fill="#D3D9E6"/>
<path d="M168.866 36.4915C171.2 32.6308 176.8 32.6308 179.134 36.4915L194.495 61.8955C196.913 65.8943 194.033 71 189.361 71H158.639C153.967 71 151.087 65.8942 153.505 61.8955L168.866 36.4915Z" fill="#0066FF"/>
<path fill-rule="evenodd" clip-rule="evenodd" d="M172.401 43C171.77 43 171.268 43.5301 171.302 44.1604L171.791 53.0488L172.721 57.7451C172.823 58.2602 173.275 58.6315 173.8 58.6315H174.202C174.727 58.6315 175.179 58.2602 175.281 57.7451L176.211 53.0488L176.699 44.1604C176.734 43.5301 176.232 43 175.601 43H172.401ZM172.798 60.1025C172.191 60.1025 171.698 60.595 171.698 61.2025V63.6C171.698 64.2075 172.191 64.7 172.798 64.7H175.202C175.81 64.7 176.302 64.2075 176.302 63.6V61.2025C176.302 60.595 175.81 60.1025 175.202 60.1025H172.798Z" fill="url(#paint6_linear_12185_156103)"/>
<defs>
<linearGradient id="paint0_linear_12185_156103" x1="37" y1="50" x2="183" y2="50" gradientUnits="userSpaceOnUse">
<stop stop-color="#CFD4E6"/>
<stop offset="1" stop-color="#DBE0F0"/>
</linearGradient>
<linearGradient id="paint1_linear_12185_156103" x1="37" y1="50" x2="183" y2="50" gradientUnits="userSpaceOnUse">
<stop stop-color="#B1B5C4"/>
<stop offset="1" stop-color="#E4E9F3"/>
</linearGradient>
<linearGradient id="paint2_linear_12185_156103" x1="24.816" y1="109.5" x2="99.3726" y2="122.2" gradientUnits="userSpaceOnUse">
<stop stop-color="#BDC3D7"/>
<stop offset="1" stop-color="#CFD4E6"/>
</linearGradient>
<linearGradient id="paint3_linear_12185_156103" x1="142.861" y1="69.5932" x2="170.752" y2="64.2374" gradientUnits="userSpaceOnUse">
<stop stop-color="#B6BDD2"/>
<stop offset="1" stop-color="#D7DDEC"/>
</linearGradient>
<linearGradient id="paint4_linear_12185_156103" x1="50" y1="103.387" x2="102.53" y2="103.387" gradientUnits="userSpaceOnUse">
<stop stop-color="#DFE3F0"/>
<stop offset="1" stop-color="white" stop-opacity="0.5"/>
</linearGradient>
<linearGradient id="paint5_linear_12185_156103" x1="110" y1="103.387" x2="171.8" y2="103.387" gradientUnits="userSpaceOnUse">
<stop stop-color="#DFE3F0"/>
<stop offset="1" stop-color="white" stop-opacity="0.5"/>
</linearGradient>
<linearGradient id="paint6_linear_12185_156103" x1="172.946" y1="46.4983" x2="182.038" y2="49.815" gradientUnits="userSpaceOnUse">
<stop offset="0.0198017" stop-color="white"/>
<stop offset="1" stop-color="white" stop-opacity="0.55"/>
</linearGradient>
</defs>
</svg>
