<?xml version="1.0" encoding="UTF-8"?>
<svg width="80px" height="80px" viewBox="0 0 80 80" version="1.1" xmlns="http://www.w3.org/2000/svg" xmlns:xlink="http://www.w3.org/1999/xlink">
    <title>icon</title>
    <g id="icon" stroke="none" stroke-width="1" fill="none" fill-rule="evenodd">
        <g id="编组-35">
            <rect id="矩形备份-12" fill="#D8D8D8" opacity="0" x="0" y="0" width="80" height="80"></rect>
            <g id="编组-11" transform="translate(8.400000, 9.200000)" fill="#A8B0BF" fill-rule="nonzero">
                <g id="编组-8">
                    <path d="M50.8,32.8 C46.0135322,32.8 42.1333333,36.6801988 42.1333333,41.4666667 C42.1333333,46.2531345 46.0135322,50.1333333 50.8,50.1333333 C55.5864678,50.1333333 59.4666667,46.2531345 59.4666667,41.4666667 C59.4666667,36.6801988 55.5864678,32.8 50.8,32.8 Z M50.8,35.2 C54.2609844,35.2 57.0666667,38.0056822 57.0666667,41.4666667 C57.0666667,44.9276511 54.2609844,47.7333333 50.8,47.7333333 C47.3390156,47.7333333 44.5333333,44.9276511 44.5333333,41.4666667 C44.5333333,38.0056822 47.3390156,35.2 50.8,35.2 Z" id="矩形"></path>
                    <path d="M50.8,47.7333333 C43.9516691,47.7333333 38.4,53.2850024 38.4,60.1333333 C38.4,60.796075 38.9372583,61.3333333 39.6,61.3333333 L62,61.3333333 C62.6627417,61.3333333 63.2,60.796075 63.2,60.1333333 C63.2,53.2850024 57.6483309,47.7333333 50.8,47.7333333 Z M51.0799048,50.1371751 C56.0083788,50.2726235 60.0460946,53.9739865 60.7056259,58.7538381 L60.727,58.933 L40.872,58.933 L40.8943741,58.7538381 C41.5663494,53.8838006 45.7451904,50.1333333 50.8,50.1333333 L51.0799048,50.1371751 Z" id="路径"></path>
                    <path d="M25.8557476,0.8 L25.6,0.8 C17.2052718,0.8 10.4,7.6052718 10.4,16 L10.4,23.2 L40.8,23.2 L40.8,15.7442524 L40.7964741,15.4198118 C40.6161011,7.29561742 33.9832628,0.8 25.8557476,0.8 Z M25.6,3.2 L25.8557476,3.2 C32.6778505,3.2 38.2456494,8.65261174 38.3968438,15.4597721 L38.4000739,15.7575659 L38.399,20.8 L12.799,20.8 L12.8,16 C12.8,8.9307552 18.5307552,3.2 25.6,3.2 Z" id="矩形"></path>
                    <path d="M26,31.2 C23.1281193,31.2 20.8,33.5281193 20.8,36.4 C20.8,39.2718807 23.1281193,41.6 26,41.6 C28.8718807,41.6 31.2,39.2718807 31.2,36.4 C31.2,33.5281193 28.8718807,31.2 26,31.2 Z M26,33.6 C27.5463973,33.6 28.8,34.8536027 28.8,36.4 C28.8,37.9463973 27.5463973,39.2 26,39.2 C24.4536027,39.2 23.2,37.9463973 23.2,36.4 C23.2,34.8536027 24.4536027,33.6 26,33.6 Z" id="椭圆形"></path>
                    <path d="M26,39.2 C26.6213203,39.2 27.1323525,39.6721997 27.1938045,40.277307 L27.2,40.4 L27.2,50.4 C27.2,51.0627417 26.6627417,51.6 26,51.6 C25.3786797,51.6 24.8676475,51.1278003 24.8061955,50.522693 L24.8,50.4 L24.8,40.4 C24.8,39.7372583 25.3372583,39.2 26,39.2 Z" id="直线-35"></path>
                    <path d="M31.2,44.4 C31.8627417,44.4 32.4,44.9372583 32.4,45.6 C32.4,46.2213203 31.9278003,46.7323525 31.322693,46.7938045 L31.2,46.8 L27.2,46.8 C26.5372583,46.8 26,46.2627417 26,45.6 C26,44.9786797 26.4721997,44.4676475 27.077307,44.4061955 L27.2,44.4 L31.2,44.4 Z" id="直线-4"></path>
                    <path d="M45.2,20.8 C48.4383969,20.8 51.0775718,23.3655749 51.1958615,26.5750617 L51.2,26.8 L51.2,27.757308 C51.2,28.4200497 50.6627417,28.957308 50,28.957308 C49.3786797,28.957308 48.8676475,28.4851083 48.8061955,27.880001 L48.8,27.757308 L48.8,26.8 C48.8,24.8759112 47.2905334,23.3043772 45.3911922,23.2049901 L45.2,23.2 L6.8,23.2 C4.87591119,23.2 3.30437721,24.7094666 3.20499009,26.6088078 L3.2,26.8 L3.2,55.6 C3.2,57.5240888 4.70946661,59.0956228 6.60880777,59.1950099 L6.8,59.2 L31.2,59.2 C31.8627417,59.2 32.4,59.7372583 32.4,60.4 C32.4,61.0213203 31.9278003,61.5323525 31.322693,61.5938045 L31.2,61.6 L6.8,61.6 C3.56160306,61.6 0.922428238,59.0344251 0.804138472,55.8249383 L0.8,55.6 L0.8,26.8 C0.8,23.5616031 3.36557489,20.9224282 6.57506174,20.8041385 L6.8,20.8 L45.2,20.8 Z" id="路径-106"></path>
                </g>
            </g>
        </g>
    </g>
</svg>