<?xml version="1.0" encoding="UTF-8"?>
<svg width="80px" height="80px" viewBox="0 0 80 80" version="1.1" xmlns="http://www.w3.org/2000/svg" xmlns:xlink="http://www.w3.org/1999/xlink">
    <title>编组 23</title>
    <g id="空数据-DT" stroke="none" stroke-width="1" fill="none" fill-rule="evenodd">
        <g id="空数据-数据为空-局部" transform="translate(-780.000000, -196.000000)">
            <g id="编组-23" transform="translate(780.000000, 196.000000)">
                <rect id="矩形" fill="#D8D8D8" opacity="0" x="0" y="0" width="80" height="80"></rect>
                <g id="编组-7备份" transform="translate(3.600000, 5.200000)" fill="#A8B0BF">
                    <path d="M17.6350463,23.7 C18.4634734,23.7 19.1350463,24.3715729 19.1350463,25.2 C19.1350463,25.9796961 18.5401582,26.6204487 17.7795063,26.6931334 L17.6350463,26.7 L15.626,26.7 L3.5,42.06 L3.52629529,64.2319699 C3.52732512,65.1207097 4.21019984,65.8495152 5.07972922,65.9237697 L5.22629415,65.93 L67.1982579,65.930001 C68.0877278,65.9289693 68.8168581,65.2450158 68.8902207,64.3747198 L68.8962909,64.2280303 L68.871,42.101 L55.496,26.7 L53.3824424,26.7 C52.6027463,26.7 51.9619937,26.1051119 51.889309,25.34446 L51.8824424,25.2 C51.8824424,24.4203039 52.4773305,23.7795513 53.2379824,23.7068666 L53.3824424,23.7 L56.8640362,23.7 L71.8693507,40.978847 L71.8962921,64.2245557 C71.89921,66.7481871 69.9126166,68.809572 67.4152723,68.924914 L67.1999978,68.93 L5.22629415,68.93 C2.70472718,68.93 0.646535347,66.9441541 0.53137522,64.4504054 L0.526297308,64.2354461 L0.499396468,41.0200208 L14.1730971,23.7 L17.6350463,23.7 Z" id="路径" fill-rule="nonzero"></path>
                    <path d="M51.2,0.5 C53.0685634,0.5 54.5951264,1.9642776 54.6948211,3.8079648 L54.7,4 L54.7,42 C54.7,42.8284271 54.0284271,43.5 53.2,43.5 C52.4203039,43.5 51.7795513,42.9051119 51.7068666,42.14446 L51.7,42 L51.7,4 C51.7,3.75454011 51.5231248,3.55039163 51.2898756,3.50805567 L51.2,3.5 L20,3.5 C19.7545401,3.5 19.5503916,3.67687516 19.5080557,3.91012437 L19.5,4 L19.5,42 C19.5,42.8284271 18.8284271,43.5 18,43.5 C17.2203039,43.5 16.5795513,42.9051119 16.5068666,42.14446 L16.5,42 L16.5,4 C16.5,2.1314366 17.9642776,0.604873551 19.8079648,0.505178863 L20,0.5 L51.2,0.5 Z" id="路径-84备份-4" fill-rule="nonzero"></path>
                    <path d="M35.6,8 C37.809139,8 39.6,9.790861 39.6,12 L39.6,22 L31.6,22 L31.6,12 C31.6,9.790861 33.390861,8 35.6,8 Z M35.6,10.4 C34.7654364,10.4 34.0801102,11.0389615 34.0065387,11.8543674 L34,12 L34,19.6 L37.2,19.6 L37.2,12 C37.2,11.1654364 36.5610385,10.4801102 35.7456326,10.4065387 L35.6,10.4 Z" id="矩形" fill-rule="nonzero"></path>
                    <path d="M44.7,20 C46.6329966,20 48.2,21.5670034 48.2,23.5 C48.2,25.4329966 46.6329966,27 44.7,27 L26.7,27 C24.7670034,27 23.2,25.4329966 23.2,23.5 C23.2,21.5670034 24.7670034,20 26.7,20 L44.7,20 Z M44.7,22.4 L26.7,22.4 C26.0924868,22.4 25.6,22.8924868 25.6,23.5 C25.6,24.0670123 26.0290107,24.5338239 26.5801429,24.5935453 L26.7,24.6 L44.7,24.6 C45.3075132,24.6 45.8,24.1075132 45.8,23.5 C45.8,22.9329877 45.3709893,22.4661761 44.8198571,22.4064547 L44.7,22.4 Z" id="矩形" fill-rule="nonzero"></path>
                    <path d="M45.7,25 L45.7,33.5 C45.7,35.4329966 44.1329966,37 42.2,37 L29.2,37 C27.2670034,37 25.7,35.4329966 25.7,33.5 L25.7,25 L45.7,25 Z M43.3,27.4 L28.1,27.4 L28.1,33.5 C28.1,34.0670123 28.5290107,34.5338239 29.0801429,34.5935453 L29.2,34.6 L42.2,34.6 C42.7670123,34.6 43.2338239,34.1709893 43.2935453,33.6198571 L43.3,33.5 L43.3,27.4 Z" id="矩形" fill-rule="nonzero"></path>
                    <path d="M31.9,30 C32.5627417,30 33.1,30.5372583 33.1,31.2 L33.1,35 L33.1,35 L30.7,35 L30.7,31.2 C30.7,30.5372583 31.2372583,30 31.9,30 Z" id="矩形"></path>
                    <path d="M39.9,30 C40.5627417,30 41.1,30.5372583 41.1,31.2 L41.1,35 L41.1,35 L38.7,35 L38.7,31.2 C38.7,30.5372583 39.2372583,30 39.9,30 Z" id="矩形"></path>
                    <path d="M35.9,30 C36.5627417,30 37.1,30.5372583 37.1,31.2 L37.1,35 L37.1,35 L34.7,35 L34.7,31.2 C34.7,30.5372583 35.2372583,30 35.9,30 Z" id="矩形"></path>
                    <path d="M2.8,40.9 L26.388022,40.9 L27.8973207,47.3145197 C27.9438209,47.5121453 28.1039373,47.6590594 28.298679,47.6927001 L28.3840293,47.7 L43.6159707,47.7 C43.8189932,47.7 43.9986749,47.577789 44.0760248,47.3959292 L44.1026793,47.3145197 L45.611978,40.9 L70.4,40.9 C71.2284271,40.9 71.9,41.5715729 71.9,42.4 C71.9,43.1796961 71.3051119,43.8204487 70.54446,43.8931334 L70.4,43.9 L47.988,43.9 L47.0229308,48.0016377 C46.6658097,49.5194024 45.3513511,50.6098696 43.8097952,50.6946785 L43.6159707,50.7 L28.3840293,50.7 C26.8248163,50.7 25.4622741,49.6702434 25.0266427,48.1890909 L24.9770692,48.0016377 L24.011,43.9 L2.8,43.9 C2.02030388,43.9 1.37955132,43.3051119 1.30686658,42.54446 L1.3,42.4 C1.3,41.6203039 1.89488808,40.9795513 2.65553999,40.9068666 L2.8,40.9 Z" id="路径" fill-rule="nonzero"></path>
                </g>
            </g>
        </g>
    </g>
</svg>