<svg width="80" height="80" viewBox="0 0 80 80" fill="none" xmlns="http://www.w3.org/2000/svg">
<rect x="55.1992" y="42.4001" width="15.6" height="15.6" rx="7.8" stroke="#A8B0BF" stroke-width="2.4"/>
<path fill-rule="evenodd" clip-rule="evenodd" d="M63 58.0001C70.1797 58.0001 76 63.8204 76 71.0001H50C50 63.8204 55.8203 58.0001 63 58.0001Z" stroke="#A8B0BF" stroke-width="2.4" stroke-linecap="round" stroke-linejoin="round"/>
<path d="M50.3605 28.3V23.8C50.3605 15.2948 43.4657 8.4 34.9605 8.4V8.4C26.4554 8.4 19.5605 15.2948 19.5605 23.8V28.3" stroke="#A8B0BF" stroke-width="2.4"/>
<circle cx="35.5" cy="44.5" r="4.5" stroke="#A8B0BF" stroke-width="2.4"/>
<path d="M35.4009 49.3599V60.3599" stroke="#A8B0BF" stroke-width="2.4" stroke-linecap="square"/>
<path d="M36.7193 55.08H41.1193" stroke="#A8B0BF" stroke-width="2.4" stroke-linecap="square"/>
<path d="M62 35.297V35C62 31.6863 59.3137 29 56 29H15C11.6863 29 9 31.6863 9 35V65C9 68.3137 11.6863 71 15 71H41.2417" stroke="#A8B0BF" stroke-width="2.4" stroke-linecap="square"/>
</svg>
