<?xml version="1.0" encoding="UTF-8"?>
<svg width="80px" height="80px" viewBox="0 0 80 80" version="1.1" xmlns="http://www.w3.org/2000/svg" xmlns:xlink="http://www.w3.org/1999/xlink">
    <title>编组 23</title>
    <g id="空数据-DT" stroke="none" stroke-width="1" fill="none" fill-rule="evenodd">
        <g id="空数据-数据为空-局部" transform="translate(-680.000000, -197.000000)">
            <g id="编组-23" transform="translate(680.000000, 197.000000)">
                <rect id="矩形" fill="#D8D8D8" opacity="0" x="0" y="0" width="80" height="80"></rect>
                <g id="编组-7备份" transform="translate(3.600000, 5.200000)" fill="#A8B0BF" fill-rule="nonzero">
                    <path d="M17.6350463,24 C18.297788,24 18.8350463,24.5372583 18.8350463,25.2 C18.8350463,25.8213203 18.3628466,26.3323525 17.7577393,26.3938045 L17.6350463,26.4 L15.481,26.399 L3.199,41.956 L3.2262955,64.2323175 C3.22751623,65.2858148 4.04310757,66.1482924 5.07715182,66.2245228 L5.22629415,66.23 L67.1986059,66.2300008 C68.2529681,66.2287778 69.1158265,65.4118985 69.1909777,64.3769512 L69.1962907,64.2276826 L69.171,41.989 L55.632,26.399 L53.3824424,26.4 C52.7611221,26.4 52.2500899,25.9278003 52.1886379,25.322693 L52.1824424,25.2 C52.1824424,24.5786797 52.6546421,24.0676475 53.2597494,24.0061955 L53.3824424,24 L56.727229,24 L71.5694806,41.0910776 L71.5962951,64.224903 C71.5990192,66.5834811 69.7454802,68.510771 67.4132949,68.6246788 L67.1999978,68.63 L5.22629415,68.63 C2.86964569,68.63 0.945338301,66.777154 0.831609882,64.4481039 L0.826297107,64.2350985 L0.799517174,41.1240166 L14.3184777,24 L17.6350463,24 Z" id="路径"></path>
                    <path d="M46.4886866,0.8 C47.1514283,0.8 47.6886866,1.3372583 47.6886866,2 C47.6886866,2.62132034 47.2164869,3.13235254 46.6113796,3.19380454 L46.4886866,3.2 L19.6,3.2 C19.4067003,3.2 19.2454251,3.3371128 19.2081266,3.51938605 L19.2,3.6 L19.2,42 C19.2,42.6627417 18.6627417,43.2 18,43.2 C17.3786797,43.2 16.8676475,42.7278003 16.8061955,42.122693 L16.8,42 L16.8,3.6 C16.8,2.11087667 17.9624629,0.893261098 19.4294318,0.805110045 L19.6,0.8 L46.4886866,0.8 Z M53.2,8.4 C53.8213203,8.4 54.3323525,8.87219968 54.3938045,9.47730697 L54.4,9.6 L54.4,42 C54.4,42.6627417 53.8627417,43.2 53.2,43.2 C52.5786797,43.2 52.0676475,42.7278003 52.0061955,42.122693 L52,42 L52,9.6 C52,8.9372583 52.5372583,8.4 53.2,8.4 Z" id="形状"></path>
                    <path d="M2.8,41.2 L26.1504176,41.2 L27.6778566,47.6916157 C27.7142975,47.8464897 27.8379594,47.9624335 27.98944,47.9923996 L28.0672235,48 L43.9327765,48 C44.0918799,48 44.233065,47.9061811 44.2969295,47.7655907 L44.3221434,47.6916157 L45.8495824,41.2 L70.4,41.2 C71.0627417,41.2 71.6,41.7372583 71.6,42.4 C71.6,43.0213203 71.1278003,43.5323525 70.522693,43.5938045 L70.4,43.6 L47.75,43.599 L46.6583446,48.2413101 C46.374271,49.448623 45.3330058,50.3179713 44.1088396,50.3945085 L43.9327765,50.4 L28.0672235,50.4 C26.8269404,50.4 25.7422111,49.5855295 25.3873263,48.4114352 L25.3416554,48.2413101 L24.249,43.599 L2.8,43.6 C2.17867966,43.6 1.66764746,43.1278003 1.60619546,42.522693 L1.6,42.4 C1.6,41.7786797 2.07219968,41.2676475 2.67730697,41.2061955 L2.8,41.2 Z" id="路径"></path>
                </g>
                <rect id="矩形" fill="#A8B0BF" transform="translate(53.537615, 11.138174) rotate(49.000000) translate(-53.537615, -11.138174) " x="48.0376154" y="9.93817353" width="11" height="2.4" rx="1.2"></rect>
                <rect id="矩形" fill="#A8B0BF" x="46.0376154" y="13.9381735" width="11" height="2.4" rx="1.2"></rect>
                <rect id="矩形" fill="#A8B0BF" transform="translate(47.200000, 11.138174) rotate(90.000000) translate(-47.200000, -11.138174) " x="42.6" y="9.93817353" width="9.2" height="2.4" rx="1"></rect>
            </g>
        </g>
    </g>
</svg>