<?xml version="1.0" encoding="UTF-8"?>
<svg width="80px" height="80px" viewBox="0 0 80 80" version="1.1" xmlns="http://www.w3.org/2000/svg" xmlns:xlink="http://www.w3.org/1999/xlink">
    <title>编组 37</title>
    <g id="异常专项-新梳理" stroke="none" stroke-width="1" fill="none" fill-rule="evenodd">
        <g id="编组-22">
            <rect id="矩形" fill="#D8D8D8" opacity="0" x="0" y="0" width="80" height="80"></rect>
            <g id="编组-21" transform="translate(6.800000, 10.800000)">
                <g id="编组-13" transform="translate(38.000000, 29.200000)" fill="#A8B0BF" fill-rule="nonzero">
                    <path d="M14.3318458,-1.2 C5.75384425,-1.2 -1.2,5.75384425 -1.2,14.3318458 C-1.2,22.9098474 5.75384425,29.8636917 14.3318458,29.8636917 C22.9098474,29.8636917 29.8636917,22.9098474 29.8636917,14.3318458 C29.8636917,5.75384425 22.9098474,-1.2 14.3318458,-1.2 Z M14.3318458,1.2 C21.584364,1.2 27.4636917,7.07932765 27.4636917,14.3318458 C27.4636917,21.584364 21.584364,27.4636917 14.3318458,27.4636917 C7.07932765,27.4636917 1.2,21.584364 1.2,14.3318458 C1.2,7.07932765 7.07932765,1.2 14.3318458,1.2 Z" id="椭圆形备份-143"></path>
                </g>
                <path d="M52.4,35.92 C53.0627417,35.92 53.6078427,36.4236797 53.6733915,37.0691274 L53.68,37.2 L53.68,45.2 C53.68,45.9069245 53.1069245,46.48 52.4,46.48 C51.7372583,46.48 51.1921573,45.9763203 51.1266085,45.3308726 L51.12,45.2 L51.12,37.2 C51.12,36.4930755 51.6930755,35.92 52.4,35.92 Z" id="直线-6" fill="#A8B0BF" fill-rule="nonzero"></path>
                <path d="M52.4,51.6 C53.2836556,51.6 54,50.8836556 54,50 C54,49.1163444 53.2836556,48.4 52.4,48.4 C51.5163444,48.4 50.8,49.1163444 50.8,50 C50.8,50.8836556 51.5163444,51.6 52.4,51.6 Z" id="椭圆形" fill="#A8B0BF"></path>
                <path d="M51.5132227,9.16470571 C52.1759599,9.16227052 52.7151954,9.6975443 52.7176472,10.3602815 C52.7199297,10.9815976 52.2496174,11.4943673 51.6447408,11.5580499 L51.5220714,11.5646977 L32.3769734,11.6352943 C31.7142362,11.6377295 31.1750007,11.1024557 31.1725488,10.4397185 C31.1702664,9.81840238 31.6405787,9.30563266 32.2454553,9.24195006 L32.3681246,9.23530227 L51.5132227,9.16470571 Z" id="直线-39备份-2" fill="#A8B0BF" fill-rule="nonzero"></path>
                <line x1="32.372549" y1="43.2352941" x2="34.273094" y2="43.2282868" id="路径" stroke="#A8B0BF" stroke-width="2.4" stroke-linecap="round"></line>
                <path d="M56.4,0.8 L5.2,0.8 C2.7699471,0.8 0.8,2.7699471 0.8,5.2 L0.8,21.2 C0.8,23.6300529 2.7699471,25.6 5.2,25.6 L56.4,25.6 C58.8300529,25.6 60.8,23.6300529 60.8,21.2 L60.8,5.2 C60.8,2.7699471 58.8300529,0.8 56.4,0.8 Z M5.2,3.2 L56.4,3.2 C57.5045695,3.2 58.4,4.0954305 58.4,5.2 L58.4,21.2 C58.4,22.3045695 57.5045695,23.2 56.4,23.2 L5.2,23.2 C4.0954305,23.2 3.2,22.3045695 3.2,21.2 L3.2,5.2 C3.2,4.0954305 4.0954305,3.2 5.2,3.2 Z" id="矩形" fill="#A8B0BF" fill-rule="nonzero"></path>
                <circle id="椭圆形" fill="#A8B0BF" cx="11.6" cy="10.8" r="1.6"></circle>
                <circle id="椭圆形" fill="#A8B0BF" cx="17.2" cy="10.8" r="1.6"></circle>
                <circle id="椭圆形" fill="#A8B0BF" cx="22.8" cy="10.8" r="1.6"></circle>
                <path d="M35.6,30.4 C36.2627417,30.4 36.8,30.9372583 36.8,31.6 C36.8,32.2213203 36.3278003,32.7323525 35.722693,32.7938045 L35.6,32.8 L5.2,32.8 C4.1456382,32.8 3.28183488,33.6158778 3.20548574,34.6507377 L3.2,34.8 L3.2,52.4 C3.2,53.4543618 4.01587779,54.3181651 5.05073766,54.3945143 L5.2,54.4 L35.6,54.4 C36.2627417,54.4 36.8,54.9372583 36.8,55.6 C36.8,56.2213203 36.3278003,56.7323525 35.722693,56.7938045 L35.6,56.8 L5.2,56.8 C2.84141924,56.8 0.916277257,54.944228 0.805073905,52.613184 L0.8,52.4 L0.8,34.8 C0.8,32.4414192 2.65577197,30.5162773 4.98681603,30.4050739 L5.2,30.4 L35.6,30.4 Z" id="路径" fill="#A8B0BF" fill-rule="nonzero"></path>
                <circle id="椭圆形" fill="#A8B0BF" cx="11.6" cy="43.6" r="1.6"></circle>
                <circle id="椭圆形" fill="#A8B0BF" cx="17.2" cy="43.6" r="1.6"></circle>
                <circle id="椭圆形" fill="#A8B0BF" cx="22.8" cy="43.6" r="1.6"></circle>
            </g>
        </g>
    </g>
</svg>