<svg width="80" height="80" viewBox="0 0 80 80" fill="none" xmlns="http://www.w3.org/2000/svg">
<circle cx="61.3008" cy="55.5" r="14.5" stroke="#A8B0BF" stroke-width="2.4"/>
<path d="M61.3008 49V56.5" stroke="#A8B0BF" stroke-width="2.4" stroke-linecap="square"/>
<circle cx="61.2996" cy="61.7" r="1.7" fill="#A8B0BF"/>
<path d="M38 23H58" stroke="#A8B0BF" stroke-width="2.4" stroke-linecap="square"/>
<path d="M38 54H42" stroke="#A8B0BF" stroke-width="2.4" stroke-linecap="square"/>
<rect x="8" y="11" width="61" height="24" rx="6" stroke="#A8B0BF" stroke-width="2.4" stroke-linecap="round" stroke-linejoin="round"/>
<circle cx="16.4008" cy="22.9999" r="1.6" fill="#A8B0BF"/>
<circle cx="23.0004" cy="22.9999" r="1.6" fill="#A8B0BF"/>
<circle cx="29.6" cy="22.9999" r="1.6" fill="#A8B0BF"/>
<circle cx="16.4008" cy="54" r="1.6" fill="#A8B0BF"/>
<circle cx="23.0004" cy="54" r="1.6" fill="#A8B0BF"/>
<circle cx="29.6" cy="54" r="1.6" fill="#A8B0BF"/>
<path d="M42 65.9998L14 66C10.6863 66 8 63.3137 8 60V49.0001C8 45.6864 10.6863 43.0001 14 43.0001L42 43" stroke="#A8B0BF" stroke-width="2.4" stroke-linecap="square" stroke-linejoin="round"/>
<circle cx="16.4008" cy="54.5" r="1.6" fill="#A8B0BF"/>
<circle cx="23.0004" cy="54.5" r="1.6" fill="#A8B0BF"/>
<circle cx="29.6" cy="54.5" r="1.6" fill="#A8B0BF"/>
</svg>
