<?xml version="1.0" encoding="UTF-8"?>
<svg width="252px" height="156px" viewBox="0 0 252 156" version="1.1" xmlns="http://www.w3.org/2000/svg" xmlns:xlink="http://www.w3.org/1999/xlink">
    <title>illustration</title>
    <g id="illustration" stroke="none" stroke-width="1" fill="none" fill-rule="evenodd">
        <g id="pic" transform="translate(-1.000000, 0.000000)">
            <path d="M222.277988,154.968331 C229.148263,140.766499 233,124.831884 233,107.997667 C233,48.3522026 184.646753,0 125,0 C65.353247,0 17,48.3522026 17,107.997667 C17,124.844398 20.8574658,140.790189 27.7373386,155" id="路径" fill="#EBEDF5"></path>
            <path d="M192.855768,66.1104739 C192.065495,66.1104739 191.345536,66.5132511 190.924913,67.1591491 L188.049282,72.0762913 C187.857126,72.4318297 187.76103,72.8079873 187.76103,73.1964594 C187.76103,74.4737057 188.792439,75.5104739 190.066702,75.5104739 C190.862153,75.5104739 191.586148,75.1023936 192.007424,74.4471691 L193.016,72.721 L194.060364,74.507737 C194.495688,75.189495 195.221619,75.5968417 196.016258,75.5968417 C197.290495,75.5968417 198.322128,74.5603195 198.322128,73.2834884 C198.322128,72.8505306 198.20278,72.433416 197.981057,72.0715925 L195.18246,67.2837145 L195.080452,67.1363807 C194.725177,66.6608227 194.220297,66.3426447 193.652556,66.2368235 L193.559,66.222 L193.645658,66.2500928 C193.394371,66.1580978 193.127809,66.1104739 192.855768,66.1104739 Z M192.855768,67.5104739 C192.962983,67.5104739 193.066678,67.5290001 193.164364,67.5647624 L193.329587,67.6033523 C193.599646,67.6326212 193.841326,67.7849449 193.989042,68.0150853 L196.779883,72.7905988 C196.875126,72.9463116 196.922128,73.1105823 196.922128,73.2834884 C196.922128,73.7885989 196.515811,74.1968417 196.016258,74.1968417 C195.704782,74.1968417 195.420759,74.0374658 195.254391,73.7773134 L193.015238,69.9461731 L190.874694,73.6125906 C190.702735,73.9268273 190.400784,74.1104739 190.066702,74.1104739 C189.567266,74.1104739 189.16103,73.7021265 189.16103,73.1964594 C189.16103,73.0413412 189.198844,72.8933221 189.270169,72.7610504 L192.051661,68.0011623 C192.22364,67.6916914 192.52386,67.5104739 192.855768,67.5104739 Z" id="形状结合" fill="#282C33" fill-rule="nonzero" transform="translate(193.041579, 70.853658) rotate(-72.000000) translate(-193.041579, -70.853658) "></path>
            <path d="M68.5676391,51.3 C65.9719008,51.3 63.8676391,53.4042617 63.8676391,56 C63.8676391,58.5957383 65.9719008,60.7 68.5676391,60.7 C71.1633775,60.7 73.2676391,58.5957383 73.2676391,56 C73.2676391,53.4042617 71.1633775,51.3 68.5676391,51.3 Z M68.5676391,52.7 C70.3901788,52.7 71.8676391,54.1774603 71.8676391,56 C71.8676391,57.8225397 70.3901788,59.3 68.5676391,59.3 C66.7450995,59.3 65.2676391,57.8225397 65.2676391,56 C65.2676391,54.1774603 66.7450995,52.7 68.5676391,52.7 Z" id="椭圆形" fill="#282C33" fill-rule="nonzero"></path>
            <g id="flower" transform="translate(40.000000, 81.745845)">
                <path d="M12.8280549,54.4389087 C6.96832954,44.2327667 3.4524943,38.7651906 2.28054923,38.0361805 C0.52263161,36.9426653 7.55430207,61 8.72624715,61 C9.50754387,61 11.2654615,61 14,61 L12.8280549,54.4389087 Z" id="路径-61" fill="#0066FF"></path>
                <path d="M25.8280549,55.4389087 C19.9683295,45.2327667 16.4524943,39.7651906 15.2805492,39.0361805 C13.5226316,37.9426653 20.5543021,62 21.7262472,62 C22.5075439,62 24.2654615,62 27,62 L25.8280549,55.4389087 Z" id="路径-61" fill="#0052CC" transform="translate(21.000000, 50.500000) scale(-1, 1) translate(-21.000000, -50.500000) "></path>
                <path d="M17,26.4112159 C15.8392881,9.86897164 14.6785762,1.08090437 13.5178643,0.0470141057 C11.7767965,-1.50382129 5.39288113,35.7162283 11.7767965,52 L17,51.2245823 L17,26.4112159 Z" id="路径-60" fill="#4791FF"></path>
                <polygon id="路径-2" fill="#FFFFFF" fill-rule="nonzero" points="13.3 19 13.3 49 12.7 49 12.7 19"></polygon>
                <polygon id="直线-2" fill="#FFFFFF" fill-rule="nonzero" points="15.416795 26.0839749 15.9160251 26.416795 13.583205 29.9160251 13.0839749 29.583205"></polygon>
                <polygon id="直线-2" fill="#FFFFFF" fill-rule="nonzero" transform="translate(11.500000, 35.000000) scale(-1, 1) translate(-11.500000, -35.000000) " points="12.416795 33.0839749 12.9160251 33.416795 10.583205 36.9160251 10.0839749 36.583205"></polygon>
                <path d="M22.8811108,37.7112745 C21.7203989,22.4415106 20.559687,14.3294485 19.3989751,13.3750882 C17.6579073,11.9435479 11.2739919,46.3005167 17.6579073,61.3316906 L22.8811108,60.6159204 L22.8811108,37.7112745 Z" id="路径-60" fill="#12D3EF" transform="translate(18.881111, 37.331691) scale(-1, 1) rotate(-20.000000) translate(-18.881111, -37.331691) "></path>
                <polygon id="矩形" fill="#4791FF" points="0 50.5 28 50.5 23.9219142 72.9 4.07808577 72.9"></polygon>
                <polygon id="路径-10" fill="#B8D4FF" points="0 50.5 7.7 50.5 11.9 72.9 4.2 72.9"></polygon>
            </g>
            <g id="编组-3" transform="translate(0.000000, 58.000000)">
                <g id="编组-11" transform="translate(79.000000, 0.000000)">
                    <g id="编组-4" transform="translate(1.000000, 65.000000)">
                        <g id="Triangle-2" stroke="#282C33" stroke-width="0.6">
                            <rect id="矩形" x="0" y="0" width="96" height="32" rx="4"></rect>
                        </g>
                        <rect id="矩形" fill="#0066FF" x="4" y="0" width="88" height="32"></rect>
                        <line x1="33" y1="16" x2="73" y2="16" id="直线-4" stroke="#282C33" stroke-width="0.6" stroke-linecap="square"></line>
                        <circle id="椭圆形" fill="#12D3EF" cx="26" cy="16" r="3"></circle>
                    </g>
                    <g id="编组-4" transform="translate(1.000000, 65.000000)">
                        <g id="Triangle-2" fill="#282C33" fill-rule="nonzero">
                            <path d="M92,-0.7 L4,-0.7 C1.40426168,-0.7 -0.7,1.40426168 -0.7,4 L-0.7,28 C-0.7,30.5957383 1.40426168,32.7 4,32.7 L92,32.7 C94.5957383,32.7 96.7,30.5957383 96.7,28 L96.7,4 C96.7,1.40426168 94.5957383,-0.7 92,-0.7 Z M4,0.7 L92,0.7 C93.8225397,0.7 95.3,2.17746033 95.3,4 L95.3,28 C95.3,29.8225397 93.8225397,31.3 92,31.3 L4,31.3 C2.17746033,31.3 0.7,29.8225397 0.7,28 L0.7,4 C0.7,2.17746033 2.17746033,0.7 4,0.7 Z" id="矩形"></path>
                        </g>
                        <rect id="矩形" fill="#247BFF" x="4" y="0" width="88" height="32"></rect>
                        <polygon id="直线-4" fill="#282C33" fill-rule="nonzero" points="73.7 15.3 73.7 16.7 32.3 16.7 32.3 15.3"></polygon>
                        <circle id="椭圆形" fill="#12D3EF" cx="26" cy="16" r="3"></circle>
                    </g>
                    <g id="编组-4" transform="translate(1.000000, 33.000000)">
                        <g id="Triangle-2" fill="#282C33" fill-rule="nonzero">
                            <path d="M92,-0.7 L4,-0.7 C1.40426168,-0.7 -0.7,1.40426168 -0.7,4 L-0.7,28 C-0.7,30.5957383 1.40426168,32.7 4,32.7 L92,32.7 C94.5957383,32.7 96.7,30.5957383 96.7,28 L96.7,4 C96.7,1.40426168 94.5957383,-0.7 92,-0.7 Z M4,0.7 L92,0.7 C93.8225397,0.7 95.3,2.17746033 95.3,4 L95.3,28 C95.3,29.8225397 93.8225397,31.3 92,31.3 L4,31.3 C2.17746033,31.3 0.7,29.8225397 0.7,28 L0.7,4 C0.7,2.17746033 2.17746033,0.7 4,0.7 Z" id="矩形"></path>
                        </g>
                        <rect id="矩形" fill="#FFFFFF" x="4" y="0" width="88" height="32"></rect>
                        <polygon id="直线-4" fill="#282C33" fill-rule="nonzero" points="73.7 15.3 73.7 16.7 32.3 16.7 32.3 15.3"></polygon>
                        <circle id="椭圆形" fill="#12D3EF" cx="26" cy="16" r="3"></circle>
                    </g>
                    <g id="Triangle-2">
                        <rect id="矩形" fill="#247BFF" x="5" y="1" width="88" height="32"></rect>
                        <rect id="矩形" fill-opacity="0.3" fill="#FFFFFF" x="41" y="15" width="34" height="4" rx="2"></rect>
                        <rect id="矩形" fill="#12D3EF" x="22" y="12" width="15" height="15" rx="7.5"></rect>
                        <path d="M27.5,9.3 C22.9712651,9.3 19.3,12.9712651 19.3,17.5 C19.3,22.0287349 22.9712651,25.7 27.5,25.7 C32.0287349,25.7 35.7,22.0287349 35.7,17.5 C35.7,12.9712651 32.0287349,9.3 27.5,9.3 Z M27.5,10.7 C31.2555363,10.7 34.3,13.7444637 34.3,17.5 C34.3,21.2555363 31.2555363,24.3 27.5,24.3 C23.7444637,24.3 20.7,21.2555363 20.7,17.5 C20.7,13.7444637 23.7444637,10.7 27.5,10.7 Z" id="矩形" fill="#282C33" fill-rule="nonzero"></path>
                        <g id="编组-10" transform="translate(26.000000, 13.000000)" fill="#FFFFFF">
                            <path d="M1.5,0.8 C1.85438271,0.8 2.14725823,1.06334362 2.19360983,1.40501415 L2.2,1.5 L2.2,5.5 C2.2,5.88659932 1.88659932,6.2 1.5,6.2 C1.14561729,6.2 0.85274177,5.93665638 0.806390175,5.59498585 L0.8,5.5 L0.8,1.5 C0.8,1.11340068 1.11340068,0.8 1.5,0.8 Z" id="直线-5" fill-rule="nonzero"></path>
                            <rect id="矩形" x="1" y="7" width="1.4" height="1.4" rx="0.7"></rect>
                        </g>
                        <path d="M93,0.3 L5,0.3 C2.40426168,0.3 0.3,2.40426168 0.3,5 L0.3,29 C0.3,31.5957383 2.40426168,33.7 5,33.7 L93,33.7 C95.5957383,33.7 97.7,31.5957383 97.7,29 L97.7,5 C97.7,2.40426168 95.5957383,0.3 93,0.3 Z M5,1.7 L93,1.7 C94.8225397,1.7 96.3,3.17746033 96.3,5 L96.3,29 C96.3,30.8225397 94.8225397,32.3 93,32.3 L5,32.3 C3.17746033,32.3 1.7,30.8225397 1.7,29 L1.7,5 C1.7,3.17746033 3.17746033,1.7 5,1.7 Z" id="矩形" fill="#282C33" fill-rule="nonzero"></path>
                    </g>
                </g>
                <rect id="矩形" fill="#B8D4FF" x="159" y="62" width="48" height="35" rx="2"></rect>
                <path d="M205,61.3 L161,61.3 C159.508831,61.3 158.3,62.5088312 158.3,64 L158.3,95 C158.3,96.4911688 159.508831,97.7 161,97.7 L205,97.7 C206.491169,97.7 207.7,96.4911688 207.7,95 L207.7,64 C207.7,62.5088312 206.491169,61.3 205,61.3 Z M161,62.7 L205,62.7 C205.71797,62.7 206.3,63.2820298 206.3,64 L206.3,95 C206.3,95.7179702 205.71797,96.3 205,96.3 L161,96.3 C160.28203,96.3 159.7,95.7179702 159.7,95 L159.7,64 C159.7,63.2820298 160.28203,62.7 161,62.7 Z" id="矩形" fill="#282C33" fill-rule="nonzero"></path>
                <polygon id="直线-4" fill="#282C33" fill-rule="nonzero" points="199.7 76.3 199.7 77.7 178.3 77.7 178.3 76.3"></polygon>
                <polygon id="直线-4" fill="#282C33" fill-rule="nonzero" points="165.28993 86.6897826 165.310217 85.2899296 201.21007 85.8102174 201.189783 87.2100704"></polygon>
                <path d="M169,73.3 C166.956546,73.3 165.3,74.9565464 165.3,77 C165.3,79.0434536 166.956546,80.7 169,80.7 C171.043454,80.7 172.7,79.0434536 172.7,77 C172.7,74.9565464 171.043454,73.3 169,73.3 Z M169,74.7 C170.270255,74.7 171.3,75.7297451 171.3,77 C171.3,78.2702549 170.270255,79.3 169,79.3 C167.729745,79.3 166.7,78.2702549 166.7,77 C166.7,75.7297451 167.729745,74.7 169,74.7 Z" id="椭圆形" fill="#282C33" fill-rule="nonzero"></path>
                <path d="M161,62 L205,62 C206.104569,62 207,62.8954305 207,64 L207,66 L207,66 L159,66 L159,64 C159,62.8954305 159.895431,62 161,62 Z" id="矩形" fill="#282C33"></path>
                <circle id="椭圆形" fill="#FFFFFF" cx="163.75" cy="63.75" r="1"></circle>
                <circle id="椭圆形" fill="#FFFFFF" cx="166.75" cy="63.75" r="1"></circle>
                <circle id="椭圆形" fill="#FFFFFF" cx="169.75" cy="63.75" r="1"></circle>
                <polygon id="直线" fill="#282C33" fill-rule="nonzero" points="254.15 96.45 254.15 97.85 0.75 97.85 0.75 96.45"></polygon>
            </g>
        </g>
    </g>
</svg>