<?xml version="1.0" encoding="UTF-8"?>
<svg width="83px" height="80px" viewBox="0 0 83 80" version="1.1" xmlns="http://www.w3.org/2000/svg" xmlns:xlink="http://www.w3.org/1999/xlink">
    <title>页面崩溃备份 3</title>
    <g id="页面-1" stroke="none" stroke-width="1" fill="none" fill-rule="evenodd">
        <g id="服务器报错" transform="translate(-679.000000, -430.000000)">
            <g id="编组-2" transform="translate(660.000000, 420.000000)">
                <g id="页面崩溃备份-3" transform="translate(10.000000, 0.000000)">
                    <rect id="矩形" x="0" y="0" width="100" height="100"></rect>
                    <g id="编组-31" transform="translate(11.000000, 12.000000)">
                        <g id="编组-4" transform="translate(39.000000, 36.000000)" stroke="#A8B0BF" stroke-width="2.8">
                            <circle id="椭圆形" cx="20" cy="20" r="20"></circle>
                            <g id="编组-32" transform="translate(14.000000, 14.000000)" stroke-linecap="round" stroke-linejoin="round">
                                <line x1="2.66453526e-15" y1="8.8817842e-16" x2="11.3137085" y2="11.3137085" id="路径-12"></line>
                                <line x1="2.66453526e-15" y1="8.8817842e-16" x2="11.3137085" y2="11.3137085" id="路径-12" transform="translate(5.656854, 5.656854) scale(-1, 1) translate(-5.656854, -5.656854) "></line>
                            </g>
                        </g>
                        <g id="编组备份">
                            <rect id="矩形" stroke="#A8B0BF" stroke-width="2.8" x="0" y="0" width="66" height="20" rx="10"></rect>
                            <rect id="矩形备份-34" fill="#E2E6F0" x="31" y="7" width="26" height="6" rx="3"></rect>
                            <rect id="矩形" fill="#A8B0BF" x="9" y="8" width="4" height="4" rx="2"></rect>
                        </g>
                        <g id="编组备份-5" transform="translate(0.000000, 26.000000)">
                            <path d="M33.3935761,20 L10.0636005,20 C4.50562741,20 0,15.5228475 0,10 C0,4.4771525 4.50562741,0 10.0636005,0 L57.2786595,0 C61.0754862,0 64.3686239,2.14291995 66,5.27800609" id="路径" stroke="#A8B0BF" stroke-width="2.8" stroke-linecap="round"></path>
                            <rect id="矩形备份-34" fill="#E2E6F0" x="31" y="7" width="11" height="6" rx="3"></rect>
                            <rect id="矩形" fill="#A8B0BF" x="9" y="8" width="4" height="4" rx="2"></rect>
                        </g>
                        <g id="编组备份-6" transform="translate(0.000000, 52.000000)">
                            <path d="M37.478965,20 L10,20 C4.4771525,20 0,15.5228475 0,10 C0,4.4771525 4.4771525,0 10,0 L31.3333333,0" id="路径" stroke="#A8B0BF" stroke-width="2.8" stroke-linecap="round"></path>
                            <rect id="矩形备份-36" fill="#E2E6F0" x="31" y="7" width="4" height="6" rx="2"></rect>
                            <rect id="矩形" fill="#A8B0BF" x="9" y="8" width="4" height="4" rx="2"></rect>
                        </g>
                    </g>
                </g>
            </g>
        </g>
    </g>
</svg>