<svg width="220" height="160" viewBox="0 0 220 160" fill="none" xmlns="http://www.w3.org/2000/svg">
<rect x="60" y="34.0001" width="94" height="110" rx="12" fill="url(#paint0_linear_201_100126)"/>
<mask id="mask0_201_100126" style="mask-type:alpha" maskUnits="userSpaceOnUse" x="60" y="34" width="94" height="111">
<rect x="60" y="34.0002" width="94" height="110" rx="12" fill="url(#paint1_linear_201_100126)"/>
</mask>
<g mask="url(#mask0_201_100126)">
<rect x="69.4583" y="41.4586" width="75.0833" height="94.0833" fill="url(#paint2_linear_201_100126)" stroke="white" stroke-width="0.916667"/>
<path opacity="0.6" d="M81 73C81 71.8954 81.8954 71 83 71H130C131.105 71 132 71.8954 132 73V115C132 116.105 131.105 117 130 117H83C81.8954 117 81 116.105 81 115V73Z" fill="url(#paint3_linear_201_100126)"/>
<path opacity="0.6" fill-rule="evenodd" clip-rule="evenodd" d="M107 53H81V57H107V53ZM132 61H81V65H132V61Z" fill="url(#paint4_linear_201_100126)"/>
<path opacity="0.6" d="M121.204 96.8257H116.004C114.852 96.8257 113.811 96.1363 113.36 95.0752L111.581 90.8808C111.323 90.2718 111.489 89.5741 111.981 89.1319C113.738 87.5536 114.692 85.1005 114.132 82.4497C113.578 79.8256 111.455 77.705 108.83 77.1569C104.328 76.217 100.365 79.6272 100.365 83.9633C100.365 86.0508 101.291 87.9128 102.748 89.1856C103.256 89.6286 103.435 90.3362 103.172 90.9562L101.424 95.0752C100.974 96.1363 99.9329 96.8257 98.7804 96.8257H93.4122C92.6322 96.8257 92 97.4579 92 98.2379V103.771C92 104.551 92.6322 105.183 93.4122 105.183H121.204C121.984 105.183 122.616 104.551 122.616 103.771V98.2383C122.617 97.4583 121.984 96.8257 121.204 96.8257ZM120.543 107.98H94.0966C93.7078 107.98 93.3928 108.295 93.3928 108.684V110.062C93.3928 110.451 93.7078 110.766 94.0966 110.766H120.543C120.932 110.766 121.247 110.451 121.247 110.062V108.684C121.247 108.296 120.932 107.98 120.543 107.98Z" fill="#AFB4C8"/>
<circle opacity="0.8" cx="149" cy="124" r="31" fill="url(#paint5_linear_201_100126)"/>
<circle cx="62" cy="55" r="20" fill="url(#paint6_linear_201_100126)"/>
</g>
<path d="M112.724 34.9501H101.276C102.953 34.0603 104.32 32.6144 105.1 30.7958C105.816 29.1249 108.184 29.1249 108.9 30.7958C109.68 32.6144 111.047 34.0603 112.724 34.9501Z" stroke="url(#paint7_linear_201_100126)" stroke-width="12.1"/>
<mask id="mask1_201_100126" style="mask-type:alpha" maskUnits="userSpaceOnUse" x="88" y="23" width="38" height="19">
<path d="M112.724 34.9501H101.276C102.953 34.0603 104.32 32.6144 105.1 30.7958C105.816 29.1249 108.184 29.1249 108.9 30.7958C109.68 32.6144 111.047 34.0603 112.724 34.9501Z" stroke="url(#paint8_linear_201_100126)" stroke-width="12.1"/>
</mask>
<g mask="url(#mask1_201_100126)">
<rect opacity="0.4" x="72.5625" y="32.4816" width="62.6875" height="12.8889" fill="url(#paint9_linear_201_100126)"/>
</g>
<circle cx="107" cy="28.2001" r="2.2" fill="#757B94"/>
<circle cx="56" cy="49" r="19.4" fill="#EBEDF5" fill-opacity="0.6" stroke="#282C33" stroke-width="1.2"/>
<path d="M53.2757 51.7478H49.2507C48.7252 51.7478 48.3627 51.2218 48.5497 50.731L52.5492 40.233C52.6033 40.091 52.6993 39.9687 52.8244 39.8825C52.9496 39.7962 53.098 39.75 53.25 39.75H59.999C60.5315 39.75 60.8945 40.2895 60.6935 40.7828L58.3647 46.4988H62.7487C63.3934 46.4988 63.7374 47.2588 63.3122 47.7433L52.5637 59.9908C52.0412 60.5863 51.0725 60.0703 51.2752 59.3045L53.2757 51.7478Z" fill="#0066FF"/>
<path d="M29 49C29 34.0883 41.0883 22 56 22" stroke="#C5CCDB" stroke-width="1.8"/>
<path d="M55 24.7516V19.2484C55 18.7453 55.582 18.4656 55.9748 18.7799L59.4143 21.5315C59.7146 21.7717 59.7146 22.2283 59.4143 22.4685L55.9748 25.2201C55.582 25.5344 55 25.2547 55 24.7516Z" fill="#C5CCDB"/>
<path d="M56 76C41.0883 76 29 63.9117 29 49" stroke="#C5CCDB" stroke-width="0.9" stroke-dasharray="3.6 3.6"/>
<path d="M56 29.5263V32.1579" stroke="#282C33" stroke-width="1.2"/>
<path d="M56 65.8421V68.4737" stroke="#282C33" stroke-width="1.2"/>
<path d="M75.4736 49L72.8421 49" stroke="#282C33" stroke-width="1.2"/>
<path d="M39.1578 49L36.5263 49" stroke="#282C33" stroke-width="1.2"/>
<circle cx="149" cy="124" r="22" fill="#0066FF"/>
<path d="M148.185 113.407V124.353C148.185 124.518 148.252 124.676 148.37 124.792L156.741 132.963" stroke="url(#paint10_linear_201_100126)" stroke-width="5.5" stroke-linejoin="round"/>
<defs>
<linearGradient id="paint0_linear_201_100126" x1="60" y1="34.0001" x2="154" y2="34.0001" gradientUnits="userSpaceOnUse">
<stop stop-color="#CFD4E6"/>
<stop offset="1" stop-color="#DBE0F0"/>
</linearGradient>
<linearGradient id="paint1_linear_201_100126" x1="60" y1="34.0002" x2="154" y2="34.0002" gradientUnits="userSpaceOnUse">
<stop stop-color="#C0C5D8"/>
<stop offset="1" stop-color="#EBF0FB"/>
</linearGradient>
<linearGradient id="paint2_linear_201_100126" x1="69" y1="41.0002" x2="145" y2="41.0002" gradientUnits="userSpaceOnUse">
<stop stop-color="#CFD4E4"/>
<stop offset="1" stop-color="#DBE1F2"/>
</linearGradient>
<linearGradient id="paint3_linear_201_100126" x1="81" y1="99.9355" x2="133.53" y2="99.9355" gradientUnits="userSpaceOnUse">
<stop stop-color="#DFE3F0"/>
<stop offset="1" stop-color="white" stop-opacity="0.5"/>
</linearGradient>
<linearGradient id="paint4_linear_201_100126" x1="81" y1="61.8065" x2="133.53" y2="61.8065" gradientUnits="userSpaceOnUse">
<stop stop-color="#DFE3F0"/>
<stop offset="1" stop-color="white" stop-opacity="0.5"/>
</linearGradient>
<linearGradient id="paint5_linear_201_100126" x1="149" y1="93" x2="123.58" y2="146.94" gradientUnits="userSpaceOnUse">
<stop stop-color="#D7DDEC"/>
<stop offset="1" stop-color="#B6BDD2"/>
</linearGradient>
<linearGradient id="paint6_linear_201_100126" x1="62" y1="35" x2="45.6" y2="69.8" gradientUnits="userSpaceOnUse">
<stop stop-color="#D7DDEC"/>
<stop offset="1" stop-color="#B6BDD2"/>
</linearGradient>
<linearGradient id="paint7_linear_201_100126" x1="88.5" y1="30.2501" x2="125.5" y2="30.2501" gradientUnits="userSpaceOnUse">
<stop stop-color="#CBD1E7"/>
<stop offset="1" stop-color="#DDE3F1"/>
</linearGradient>
<linearGradient id="paint8_linear_201_100126" x1="88.5" y1="30.2501" x2="125.5" y2="30.2501" gradientUnits="userSpaceOnUse">
<stop stop-color="#BEC2D0"/>
<stop offset="1" stop-color="#DBE0F1"/>
</linearGradient>
<linearGradient id="paint9_linear_201_100126" x1="103.906" y1="32.4816" x2="103.906" y2="45.3705" gradientUnits="userSpaceOnUse">
<stop stop-color="#868FAE" stop-opacity="0"/>
<stop offset="1" stop-color="#61677C"/>
</linearGradient>
<linearGradient id="paint10_linear_201_100126" x1="148.185" y1="113.815" x2="156.333" y2="132.963" gradientUnits="userSpaceOnUse">
<stop offset="0.0111865" stop-color="white"/>
<stop offset="1" stop-color="white" stop-opacity="0.55"/>
</linearGradient>
</defs>
</svg>
